<svg xmlns="http://www.w3.org/2000/svg" xmlns:xlink="http://www.w3.org/1999/xlink" viewBox="0 0 906.79 800"><defs><linearGradient id="_ÂÁ_Ï_ÌÌ_È_ËÂÌÚ_22" x1="16.28" x2="792.85" y1="450.08" y2="450.08" data-name="¡ÂÁ˚ÏˇÌÌ˚È „‡‰ËÂÌÚ 22" gradientUnits="userSpaceOnUse"><stop offset="0" stop-color="#45485f"/><stop offset=".18" stop-color="#465060"/><stop offset=".46" stop-color="#496765"/><stop offset=".81" stop-color="#4e8d6e"/><stop offset="1" stop-color="#52a473"/></linearGradient><linearGradient xlink:href="#_ÂÁ_Ï_ÌÌ_È_ËÂÌÚ_22" id="_ÂÁ_Ï_ÌÌ_È_ËÂÌÚ_22-2" x1="368.56" x2="11.31" y1="186.55" y2="113.07" data-name="¡ÂÁ˚ÏˇÌÌ˚È „‡‰ËÂÌÚ 22"/><linearGradient xlink:href="#_ÂÁ_Ï_ÌÌ_È_ËÂÌÚ_22" id="_ÂÁ_Ï_ÌÌ_È_ËÂÌÚ_22-3" x1="259.81" x2="17.13" y1="276.43" y2="118.8" data-name="¡ÂÁ˚ÏˇÌÌ˚È „‡‰ËÂÌÚ 22"/><linearGradient xlink:href="#_ÂÁ_Ï_ÌÌ_È_ËÂÌÚ_22" id="_ÂÁ_Ï_ÌÌ_È_ËÂÌÚ_22-4" x1="90.8" x2="287.09" y1="281.13" y2="176.45" data-name="¡ÂÁ˚ÏˇÌÌ˚È „‡‰ËÂÌÚ 22" gradientTransform="matrix(-1 0 0 1 282.63 0)"/><linearGradient xlink:href="#_ÂÁ_Ï_ÌÌ_È_ËÂÌÚ_22" id="_ÂÁ_Ï_ÌÌ_È_ËÂÌÚ_22-5" x1="288.64" x2="33.32" y1="337.51" y2="197.49" data-name="¡ÂÁ˚ÏˇÌÌ˚È „‡‰ËÂÌÚ 22"/><linearGradient id="_ÂÁ_Ï_ÌÌ_È_ËÂÌÚ_20" x1="82.92" x2="260.49" y1="293.51" y2="293.51" data-name="¡ÂÁ˚ÏˇÌÌ˚È „‡‰ËÂÌÚ 20" gradientUnits="userSpaceOnUse"><stop offset="0" stop-color="#2e7b82"/><stop offset="1" stop-color="#45485f"/></linearGradient><linearGradient id="_ÂÁ_Ï_ÌÌ_È_ËÂÌÚ_23" x1="137.21" x2="-24.52" y1="336.2" y2="244.27" data-name="¡ÂÁ˚ÏˇÌÌ˚È „‡‰ËÂÌÚ 23" gradientUnits="userSpaceOnUse"><stop offset="0" stop-color="#45485f"/><stop offset=".06" stop-color="#465061"/><stop offset=".16" stop-color="#496768"/><stop offset=".28" stop-color="#4e8d74"/><stop offset=".28" stop-color="#4f8e75"/><stop offset=".86" stop-color="#519e73"/><stop offset="1" stop-color="#52a473"/></linearGradient><linearGradient xlink:href="#_ÂÁ_Ï_ÌÌ_È_ËÂÌÚ_22" id="_ÂÁ_Ï_ÌÌ_È_ËÂÌÚ_22-6" x1="207.03" x2="-1.3" y1="128.67" y2="-6.65" data-name="¡ÂÁ˚ÏˇÌÌ˚È „‡‰ËÂÌÚ 22"/><linearGradient xlink:href="#_ÂÁ_Ï_ÌÌ_È_ËÂÌÚ_20" id="_ÂÁ_Ï_ÌÌ_È_ËÂÌÚ_20-2" y1="121.05" y2="121.05" data-name="¡ÂÁ˚ÏˇÌÌ˚È „‡‰ËÂÌÚ 20"/><linearGradient xlink:href="#_ÂÁ_Ï_ÌÌ_È_ËÂÌÚ_23" id="_ÂÁ_Ï_ÌÌ_È_ËÂÌÚ_23-2" x1="116.52" x2="-29.03" y1="151.73" y2="69.67" data-name="¡ÂÁ˚ÏˇÌÌ˚È „‡‰ËÂÌÚ 23"/><linearGradient xlink:href="#_ÂÁ_Ï_ÌÌ_È_ËÂÌÚ_22" id="_ÂÁ_Ï_ÌÌ_È_ËÂÌÚ_22-7" x1="165.61" x2="-1.88" y1="84.23" y2="46.4" data-name="¡ÂÁ˚ÏˇÌÌ˚È „‡‰ËÂÌÚ 22"/><linearGradient xlink:href="#_ÂÁ_Ï_ÌÌ_È_ËÂÌÚ_22" id="_ÂÁ_Ï_ÌÌ_È_ËÂÌÚ_22-8" x1="199.45" x2="10.19" y1="118.58" y2="-4.34" data-name="¡ÂÁ˚ÏˇÌÌ˚È „‡‰ËÂÌÚ 22"/><linearGradient xlink:href="#_ÂÁ_Ï_ÌÌ_È_ËÂÌÚ_20" id="_ÂÁ_Ï_ÌÌ_È_ËÂÌÚ_20-3" x1="86.71" x2="248.01" y1="104.76" y2="104.76" data-name="¡ÂÁ˚ÏˇÌÌ˚È „‡‰ËÂÌÚ 20"/><linearGradient xlink:href="#_ÂÁ_Ï_ÌÌ_È_ËÂÌÚ_23" id="_ÂÁ_Ï_ÌÌ_È_ËÂÌÚ_23-3" x1="114.82" x2="-10.97" y1="131.27" y2="60.35" data-name="¡ÂÁ˚ÏˇÌÌ˚È „‡‰ËÂÌÚ 23"/><linearGradient xlink:href="#_ÂÁ_Ï_ÌÌ_È_ËÂÌÚ_22" id="_ÂÁ_Ï_ÌÌ_È_ËÂÌÚ_22-9" x1="161.82" x2="9.67" y1="78.21" y2="43.85" data-name="¡ÂÁ˚ÏˇÌÌ˚È „‡‰ËÂÌÚ 22"/><linearGradient xlink:href="#_ÂÁ_Ï_ÌÌ_È_ËÂÌÚ_22" id="_ÂÁ_Ï_ÌÌ_È_ËÂÌÚ_22-10" x1="954.22" x2="596.97" y1="183.38" y2="109.9" data-name="¡ÂÁ˚ÏˇÌÌ˚È „‡‰ËÂÌÚ 22"/><linearGradient xlink:href="#_ÂÁ_Ï_ÌÌ_È_ËÂÌÚ_22" id="_ÂÁ_Ï_ÌÌ_È_ËÂÌÚ_22-11" x1="845.48" x2="602.79" y1="273.26" y2="115.64" data-name="¡ÂÁ˚ÏˇÌÌ˚È „‡‰ËÂÌÚ 22"/><linearGradient xlink:href="#_ÂÁ_Ï_ÌÌ_È_ËÂÌÚ_22" id="_ÂÁ_Ï_ÌÌ_È_ËÂÌÚ_22-12" x1="-494.86" x2="-298.58" y1="277.96" y2="173.29" data-name="¡ÂÁ˚ÏˇÌÌ˚È „‡‰ËÂÌÚ 22" gradientTransform="matrix(-1 0 0 1 282.63 0)"/><linearGradient xlink:href="#_ÂÁ_Ï_ÌÌ_È_ËÂÌÚ_22" id="_ÂÁ_Ï_ÌÌ_È_ËÂÌÚ_22-13" x1="874.3" x2="618.98" y1="334.35" y2="194.33" data-name="¡ÂÁ˚ÏˇÌÌ˚È „‡‰ËÂÌÚ 22"/><linearGradient xlink:href="#_ÂÁ_Ï_ÌÌ_È_ËÂÌÚ_20" id="_ÂÁ_Ï_ÌÌ_È_ËÂÌÚ_20-4" x1="668.59" x2="846.16" y1="290.35" y2="290.35" data-name="¡ÂÁ˚ÏˇÌÌ˚È „‡‰ËÂÌÚ 20"/><linearGradient xlink:href="#_ÂÁ_Ï_ÌÌ_È_ËÂÌÚ_23" id="_ÂÁ_Ï_ÌÌ_È_ËÂÌÚ_23-4" x1="722.87" x2="561.15" y1="333.04" y2="241.1" data-name="¡ÂÁ˚ÏˇÌÌ˚È „‡‰ËÂÌÚ 23"/><linearGradient xlink:href="#_ÂÁ_Ï_ÌÌ_È_ËÂÌÚ_22" id="_ÂÁ_Ï_ÌÌ_È_ËÂÌÚ_22-14" x1="792.7" x2="584.36" y1="125.51" y2="-9.81" data-name="¡ÂÁ˚ÏˇÌÌ˚È „‡‰ËÂÌÚ 22"/><linearGradient xlink:href="#_ÂÁ_Ï_ÌÌ_È_ËÂÌÚ_20" id="_ÂÁ_Ï_ÌÌ_È_ËÂÌÚ_20-5" x1="668.59" x2="846.16" y1="117.89" y2="117.89" data-name="¡ÂÁ˚ÏˇÌÌ˚È „‡‰ËÂÌÚ 20"/><linearGradient xlink:href="#_ÂÁ_Ï_ÌÌ_È_ËÂÌÚ_23" id="_ÂÁ_Ï_ÌÌ_È_ËÂÌÚ_23-5" x1="702.18" x2="556.64" y1="148.56" y2="66.5" data-name="¡ÂÁ˚ÏˇÌÌ˚È „‡‰ËÂÌÚ 23"/><linearGradient xlink:href="#_ÂÁ_Ï_ÌÌ_È_ËÂÌÚ_22" id="_ÂÁ_Ï_ÌÌ_È_ËÂÌÚ_22-15" x1="751.27" x2="583.78" y1="81.06" y2="43.24" data-name="¡ÂÁ˚ÏˇÌÌ˚È „‡‰ËÂÌÚ 22"/><linearGradient xlink:href="#_ÂÁ_Ï_ÌÌ_È_ËÂÌÚ_22" id="_ÂÁ_Ï_ÌÌ_È_ËÂÌÚ_22-16" x1="785.11" x2="595.85" y1="115.42" y2="-7.51" data-name="¡ÂÁ˚ÏˇÌÌ˚È „‡‰ËÂÌÚ 22"/><linearGradient xlink:href="#_ÂÁ_Ï_ÌÌ_È_ËÂÌÚ_20" id="_ÂÁ_Ï_ÌÌ_È_ËÂÌÚ_20-6" x1="672.37" x2="833.68" y1="101.59" y2="101.59" data-name="¡ÂÁ˚ÏˇÌÌ˚È „‡‰ËÂÌÚ 20"/><linearGradient xlink:href="#_ÂÁ_Ï_ÌÌ_È_ËÂÌÚ_23" id="_ÂÁ_Ï_ÌÌ_È_ËÂÌÚ_23-6" x1="700.48" x2="574.69" y1="128.11" y2="57.19" data-name="¡ÂÁ˚ÏˇÌÌ˚È „‡‰ËÂÌÚ 23"/><linearGradient xlink:href="#_ÂÁ_Ï_ÌÌ_È_ËÂÌÚ_22" id="_ÂÁ_Ï_ÌÌ_È_ËÂÌÚ_22-17" x1="747.48" x2="595.33" y1="75.04" y2="40.68" data-name="¡ÂÁ˚ÏˇÌÌ˚È „‡‰ËÂÌÚ 22"/><linearGradient xlink:href="#_ÂÁ_Ï_ÌÌ_È_ËÂÌÚ_22" id="_ÂÁ_Ï_ÌÌ_È_ËÂÌÚ_22-18" x1="658.93" x2="301.68" y1="354.31" y2="280.83" data-name="¡ÂÁ˚ÏˇÌÌ˚È „‡‰ËÂÌÚ 22"/><linearGradient xlink:href="#_ÂÁ_Ï_ÌÌ_È_ËÂÌÚ_22" id="_ÂÁ_Ï_ÌÌ_È_ËÂÌÚ_22-19" x1="550.18" x2="307.5" y1="444.2" y2="286.57" data-name="¡ÂÁ˚ÏˇÌÌ˚È „‡‰ËÂÌÚ 22"/><linearGradient xlink:href="#_ÂÁ_Ï_ÌÌ_È_ËÂÌÚ_22" id="_ÂÁ_Ï_ÌÌ_È_ËÂÌÚ_22-20" x1="-199.57" x2="-3.29" y1="448.9" y2="344.22" data-name="¡ÂÁ˚ÏˇÌÌ˚È „‡‰ËÂÌÚ 22" gradientTransform="matrix(-1 0 0 1 282.63 0)"/><linearGradient xlink:href="#_ÂÁ_Ï_ÌÌ_È_ËÂÌÚ_22" id="_ÂÁ_Ï_ÌÌ_È_ËÂÌÚ_22-21" x1="579.01" x2="323.69" y1="505.28" y2="365.26" data-name="¡ÂÁ˚ÏˇÌÌ˚È „‡‰ËÂÌÚ 22"/><linearGradient xlink:href="#_ÂÁ_Ï_ÌÌ_È_ËÂÌÚ_20" id="_ÂÁ_Ï_ÌÌ_È_ËÂÌÚ_20-7" x1="373.29" x2="550.86" y1="461.28" y2="461.28" data-name="¡ÂÁ˚ÏˇÌÌ˚È „‡‰ËÂÌÚ 20"/><linearGradient xlink:href="#_ÂÁ_Ï_ÌÌ_È_ËÂÌÚ_23" id="_ÂÁ_Ï_ÌÌ_È_ËÂÌÚ_23-7" x1="427.58" x2="265.85" y1="503.97" y2="412.04" data-name="¡ÂÁ˚ÏˇÌÌ˚È „‡‰ËÂÌÚ 23"/><linearGradient xlink:href="#_ÂÁ_Ï_ÌÌ_È_ËÂÌÚ_22" id="_ÂÁ_Ï_ÌÌ_È_ËÂÌÚ_22-22" x1="497.4" x2="289.07" y1="296.44" y2="161.12" data-name="¡ÂÁ˚ÏˇÌÌ˚È „‡‰ËÂÌÚ 22"/><linearGradient xlink:href="#_ÂÁ_Ï_ÌÌ_È_ËÂÌÚ_20" id="_ÂÁ_Ï_ÌÌ_È_ËÂÌÚ_20-8" x1="373.29" x2="550.86" y1="288.82" y2="288.82" data-name="¡ÂÁ˚ÏˇÌÌ˚È „‡‰ËÂÌÚ 20"/><linearGradient xlink:href="#_ÂÁ_Ï_ÌÌ_È_ËÂÌÚ_23" id="_ÂÁ_Ï_ÌÌ_È_ËÂÌÚ_23-8" x1="406.89" x2="261.34" y1="319.49" y2="237.44" data-name="¡ÂÁ˚ÏˇÌÌ˚È „‡‰ËÂÌÚ 23"/><linearGradient xlink:href="#_ÂÁ_Ï_ÌÌ_È_ËÂÌÚ_22" id="_ÂÁ_Ï_ÌÌ_È_ËÂÌÚ_22-23" x1="455.98" x2="288.49" y1="251.99" y2="214.17" data-name="¡ÂÁ˚ÏˇÌÌ˚È „‡‰ËÂÌÚ 22"/><linearGradient xlink:href="#_ÂÁ_Ï_ÌÌ_È_ËÂÌÚ_22" id="_ÂÁ_Ï_ÌÌ_È_ËÂÌÚ_22-24" x1="489.82" x2="300.56" y1="286.35" y2="163.42" data-name="¡ÂÁ˚ÏˇÌÌ˚È „‡‰ËÂÌÚ 22"/><linearGradient xlink:href="#_ÂÁ_Ï_ÌÌ_È_ËÂÌÚ_20" id="_ÂÁ_Ï_ÌÌ_È_ËÂÌÚ_20-9" x1="377.08" x2="538.38" y1="272.53" y2="272.53" data-name="¡ÂÁ˚ÏˇÌÌ˚È „‡‰ËÂÌÚ 20"/><linearGradient xlink:href="#_ÂÁ_Ï_ÌÌ_È_ËÂÌÚ_23" id="_ÂÁ_Ï_ÌÌ_È_ËÂÌÚ_23-9" x1="405.19" x2="279.4" y1="299.04" y2="228.12" data-name="¡ÂÁ˚ÏˇÌÌ˚È „‡‰ËÂÌÚ 23"/><linearGradient xlink:href="#_ÂÁ_Ï_ÌÌ_È_ËÂÌÚ_22" id="_ÂÁ_Ï_ÌÌ_È_ËÂÌÚ_22-25" x1="452.19" x2="300.04" y1="245.97" y2="211.62" data-name="¡ÂÁ˚ÏˇÌÌ˚È „‡‰ËÂÌÚ 22"/><linearGradient id="_ÂÁ_Ï_ÌÌ_È_ËÂÌÚ_21" x1="500.81" x2="500.81" y1="245.26" y2="19.81" data-name="¡ÂÁ˚ÏˇÌÌ˚È „‡‰ËÂÌÚ 21" gradientUnits="userSpaceOnUse"><stop offset="0" stop-color="#d4e058"/><stop offset=".13" stop-color="#b5c25d"/><stop offset=".3" stop-color="#91a063"/><stop offset=".47" stop-color="#768567"/><stop offset=".64" stop-color="#62726b"/><stop offset=".82" stop-color="#56666d"/><stop offset="1" stop-color="#53636e"/></linearGradient><linearGradient id="_ÂÁ_Ï_ÌÌ_È_ËÂÌÚ_19" x1="486.61" x2="698.99" y1="606.1" y2="606.1" data-name="¡ÂÁ˚ÏˇÌÌ˚È „‡‰ËÂÌÚ 19" gradientUnits="userSpaceOnUse"><stop offset="0" stop-color="#52a473"/><stop offset=".19" stop-color="#4e8d6e"/><stop offset=".54" stop-color="#496765"/><stop offset=".82" stop-color="#465060"/><stop offset="1" stop-color="#45485f"/></linearGradient><linearGradient xlink:href="#_ÂÁ_Ï_ÌÌ_È_ËÂÌÚ_20" id="_ÂÁ_Ï_ÌÌ_È_ËÂÌÚ_20-10" x1="639.74" x2="745.93" y1="606.1" y2="606.1" data-name="¡ÂÁ˚ÏˇÌÌ˚È „‡‰ËÂÌÚ 20"/><linearGradient xlink:href="#_ÂÁ_Ï_ÌÌ_È_ËÂÌÚ_19" id="_ÂÁ_Ï_ÌÌ_È_ËÂÌÚ_19-2" x1="533.55" x2="745.95" y1="582.64" y2="582.64" data-name="¡ÂÁ˚ÏˇÌÌ˚È „‡‰ËÂÌÚ 19"/><linearGradient xlink:href="#_ÂÁ_Ï_ÌÌ_È_ËÂÌÚ_19" id="_ÂÁ_Ï_ÌÌ_È_ËÂÌÚ_19-3" x1="533.55" x2="641.95" y1="582.64" y2="582.64" data-name="¡ÂÁ˚ÏˇÌÌ˚È „‡‰ËÂÌÚ 19"/><linearGradient xlink:href="#_ÂÁ_Ï_ÌÌ_È_ËÂÌÚ_19" id="_ÂÁ_Ï_ÌÌ_È_ËÂÌÚ_19-4" x1="562.44" x2="740.21" y1="644.44" y2="528.25" data-name="¡ÂÁ˚ÏˇÌÌ˚È „‡‰ËÂÌÚ 19"/><linearGradient xlink:href="#_ÂÁ_Ï_ÌÌ_È_ËÂÌÚ_19" id="_ÂÁ_Ï_ÌÌ_È_ËÂÌÚ_19-5" x1="647.45" x2="859.83" y1="513.25" y2="513.25" data-name="¡ÂÁ˚ÏˇÌÌ˚È „‡‰ËÂÌÚ 19"/><linearGradient xlink:href="#_ÂÁ_Ï_ÌÌ_È_ËÂÌÚ_20" id="_ÂÁ_Ï_ÌÌ_È_ËÂÌÚ_20-11" x1="800.58" x2="906.77" y1="513.25" y2="513.25" data-name="¡ÂÁ˚ÏˇÌÌ˚È „‡‰ËÂÌÚ 20"/><linearGradient xlink:href="#_ÂÁ_Ï_ÌÌ_È_ËÂÌÚ_19" id="_ÂÁ_Ï_ÌÌ_È_ËÂÌÚ_19-6" x1="694.4" x2="906.79" y1="489.79" y2="489.79" data-name="¡ÂÁ˚ÏˇÌÌ˚È „‡‰ËÂÌÚ 19"/><linearGradient xlink:href="#_ÂÁ_Ï_ÌÌ_È_ËÂÌÚ_19" id="_ÂÁ_Ï_ÌÌ_È_ËÂÌÚ_19-7" x1="694.4" x2="802.8" y1="489.79" y2="489.79" data-name="¡ÂÁ˚ÏˇÌÌ˚È „‡‰ËÂÌÚ 19"/><linearGradient xlink:href="#_ÂÁ_Ï_ÌÌ_È_ËÂÌÚ_19" id="_ÂÁ_Ï_ÌÌ_È_ËÂÌÚ_19-8" x1="723.28" x2="901.05" y1="551.59" y2="435.4" data-name="¡ÂÁ˚ÏˇÌÌ˚È „‡‰ËÂÌÚ 19"/><linearGradient xlink:href="#_ÂÁ_Ï_ÌÌ_È_ËÂÌÚ_19" id="_ÂÁ_Ï_ÌÌ_È_ËÂÌÚ_19-9" x1="325.77" x2="538.14" y1="698.95" y2="698.95" data-name="¡ÂÁ˚ÏˇÌÌ˚È „‡‰ËÂÌÚ 19"/><linearGradient xlink:href="#_ÂÁ_Ï_ÌÌ_È_ËÂÌÚ_20" id="_ÂÁ_Ï_ÌÌ_È_ËÂÌÚ_20-12" x1="478.9" x2="585.09" y1="698.95" y2="698.95" data-name="¡ÂÁ˚ÏˇÌÌ˚È „‡‰ËÂÌÚ 20"/><linearGradient xlink:href="#_ÂÁ_Ï_ÌÌ_È_ËÂÌÚ_19" id="_ÂÁ_Ï_ÌÌ_È_ËÂÌÚ_19-10" x1="372.71" x2="585.1" y1="675.49" y2="675.49" data-name="¡ÂÁ˚ÏˇÌÌ˚È „‡‰ËÂÌÚ 19"/><linearGradient xlink:href="#_ÂÁ_Ï_ÌÌ_È_ËÂÌÚ_19" id="_ÂÁ_Ï_ÌÌ_È_ËÂÌÚ_19-11" x1="372.71" x2="481.11" y1="675.49" y2="675.49" data-name="¡ÂÁ˚ÏˇÌÌ˚È „‡‰ËÂÌÚ 19"/><linearGradient xlink:href="#_ÂÁ_Ï_ÌÌ_È_ËÂÌÚ_19" id="_ÂÁ_Ï_ÌÌ_È_ËÂÌÚ_19-12" x1="401.6" x2="579.37" y1="737.29" y2="621.1" data-name="¡ÂÁ˚ÏˇÌÌ˚È „‡‰ËÂÌÚ 19"/><radialGradient id="_ÂÁ_Ï_ÌÌ_È_ËÂÌÚ_26" cx="-100.52" cy="535.11" r="611.06" data-name="¡ÂÁ˚ÏˇÌÌ˚È „‡‰ËÂÌÚ 26" fx="-100.52" fy="535.11" gradientUnits="userSpaceOnUse"><stop offset="0" stop-color="#52a473"/><stop offset=".02" stop-color="#529e72"/><stop offset=".11" stop-color="#528870"/><stop offset=".21" stop-color="#52776f"/><stop offset=".33" stop-color="#526b6e"/><stop offset=".51" stop-color="#52646e"/><stop offset="1" stop-color="#53636e"/></radialGradient><radialGradient id="_ÂÁ_Ï_ÌÌ_È_ËÂÌÚ_25" cx="289.4" cy="712.93" r="1082.86" data-name="¡ÂÁ˚ÏˇÌÌ˚È „‡‰ËÂÌÚ 25" fx="289.4" fy="712.93" gradientUnits="userSpaceOnUse"><stop offset="0" stop-color="#52a473"/><stop offset=".19" stop-color="#4e8d6e"/><stop offset=".54" stop-color="#496765"/><stop offset=".82" stop-color="#465060"/><stop offset="1" stop-color="#45485f"/></radialGradient><radialGradient xlink:href="#_ÂÁ_Ï_ÌÌ_È_ËÂÌÚ_25" id="_ÂÁ_Ï_ÌÌ_È_ËÂÌÚ_25-2" cx="8.58" cy="527.49" r="312.61" data-name="¡ÂÁ˚ÏˇÌÌ˚È „‡‰ËÂÌÚ 25" fx="8.58" fy="527.49"/><radialGradient xlink:href="#_ÂÁ_Ï_ÌÌ_È_ËÂÌÚ_25" id="_ÂÁ_Ï_ÌÌ_È_ËÂÌÚ_25-3" cx="26.08" cy="450.34" r="645.17" data-name="¡ÂÁ˚ÏˇÌÌ˚È „‡‰ËÂÌÚ 25" fx="26.08" fy="450.34"/><radialGradient xlink:href="#_ÂÁ_Ï_ÌÌ_È_ËÂÌÚ_25" id="_ÂÁ_Ï_ÌÌ_È_ËÂÌÚ_25-4" cx="77.27" cy="481.32" r="527.99" data-name="¡ÂÁ˚ÏˇÌÌ˚È „‡‰ËÂÌÚ 25" fx="77.27" fy="481.32"/><radialGradient xlink:href="#_ÂÁ_Ï_ÌÌ_È_ËÂÌÚ_25" id="_ÂÁ_Ï_ÌÌ_È_ËÂÌÚ_25-5" cx="8.58" cy="484.01" r="746.32" data-name="¡ÂÁ˚ÏˇÌÌ˚È „‡‰ËÂÌÚ 25" fx="8.58" fy="484.01"/><radialGradient xlink:href="#_ÂÁ_Ï_ÌÌ_È_ËÂÌÚ_25" id="_ÂÁ_Ï_ÌÌ_È_ËÂÌÚ_25-6" cx="8.57" cy="481.31" r="997.11" data-name="¡ÂÁ˚ÏˇÌÌ˚È „‡‰ËÂÌÚ 25" fx="8.57" fy="481.31"/><style>.cls-1{opacity:.1}.cls-42,.cls-43,.cls-44,.cls-58,.cls-59,.cls-73,.cls-74,.cls-76,.cls-77,.cls-78,.cls-79,.cls-80,.cls-81{stroke-width:0}.cls-79{fill:#d4e058}.cls-42,.cls-43,.cls-44{opacity:.5}.cls-84{opacity:.9}.cls-42,.cls-80{fill:#d9e36c}.cls-43,.cls-76{fill:#85c666}.cls-44,.cls-58,.cls-73{fill:#52a473}.cls-85{opacity:.4}.cls-58,.cls-59{opacity:.3}.cls-59,.cls-78{fill:#1e1247}.cls-74{fill:#4a8f9b}.cls-77{fill:#338896}.cls-81{fill:#9bcc65}</style></defs><g style="isolation:isolate"><g id="Layer_1" data-name="Layer 1"><path d="M189.16 144.94c-.52 0-1.03-.27-1.31-.76-.42-.73-.17-1.65.55-2.07L413.82 11.97c.72-.42 1.65-.17 2.07.55.42.73.17 1.65-.55 2.07L189.91 144.74c-.24.14-.5.2-.76.2z" class="cls-79"/><path d="M631.17 139.84c-.26 0-.52-.07-.76-.2L413.82 14.59c-.73-.42-.97-1.34-.55-2.07a1.51 1.51 0 0 1 2.07-.55l216.59 125.05c.73.42.97 1.34.55 2.07-.28.49-.79.76-1.31.76zM300.85 732.97c-5.48 0-10.72-1.11-14.64-3.37L67 603.04c-4.06-2.34-6.29-5.65-6.29-9.33 0-4.32 3.13-8.6 8.59-11.75l420.14-242.57c9.86-5.7 24.88-6.29 33.48-1.33l219.21 126.56c4.06 2.34 6.29 5.65 6.29 9.33 0 4.32-3.13 8.6-8.59 11.75L319.69 728.27c-5.37 3.11-12.28 4.69-18.84 4.69zm207.43-395.28c-6.01 0-12.37 1.47-17.32 4.33L70.82 584.59c-4.49 2.59-7.07 5.92-7.07 9.13 0 2.55 1.69 4.93 4.77 6.71l219.21 126.56c7.76 4.48 21.42 3.89 30.45-1.32L738.32 483.1c4.49-2.59 7.07-5.92 7.07-9.13 0-2.55-1.69-4.93-4.77-6.71L521.41 340.7c-3.5-2.02-8.19-3-13.12-3z" class="cls-79"/><path d="m709.88 412.2-59.63-34.42 59.62-34.43 59.63 34.43-59.62 34.42z" class="cls-59"/><path d="m792.84 382.12-31.71 5.56-223.18-128.85c-9.29-5.36-25.52-4.69-36.25 1.5L72.01 508.4l-55.72 9.76v18.14h.02c-.09 3.48 1.94 6.82 6.24 9.3l248.63 143.55c9.29 5.36 25.52 4.69 36.25-1.5l476.53-275.13c5.85-3.38 8.83-7.69 8.85-11.79h.02v-18.61z" class="cls-77"/><path fill="url(#_ÂÁ_Ï_ÌÌ_È_ËÂÌÚ_26)" stroke-width="0" d="m792.84 382.12-31.71 5.56-223.18-128.85c-9.29-5.36-25.52-4.69-36.25 1.5L72.01 508.4l-55.72 9.76v18.14h.02c-.09 3.48 1.94 6.82 6.24 9.3l248.63 143.55c9.29 5.36 25.52 4.69 36.25-1.5l476.53-275.13c5.85-3.38 8.83-7.69 8.85-11.79h.02v-18.61z" opacity=".5" style="mix-blend-mode:lighten"/><path fill="url(#_ÂÁ_Ï_ÌÌ_È_ËÂÌÚ_25)" stroke-width="0" d="M783.97 401.32 307.44 676.45c-10.73 6.19-26.96 6.87-36.25 1.5L22.55 534.4c-4.3-2.48-6.33-5.82-6.24-9.31h-.02v4.76h.02c-.09 3.48 1.94 6.82 6.24 9.3L271.18 682.7c9.29 5.36 25.52 4.69 36.25-1.5l476.53-275.13c5.85-3.38 8.83-7.69 8.85-11.79h.02v-4.76h-.02c-.02 4.1-3.01 8.42-8.85 11.79z"/><path d="M271.18 670.63 22.55 527.09c-9.29-5.36-8.13-14.74 2.6-20.93l476.54-275.13c10.73-6.19 26.96-6.87 36.25-1.5l248.63 143.55c9.29 5.36 8.13 14.74-2.6 20.93L307.44 669.14c-10.73 6.2-26.96 6.87-36.25 1.5z" class="cls-77"/><path fill="url(#_ÂÁ_Ï_ÌÌ_È_ËÂÌÚ_22)" stroke-width="0" d="M271.18 670.63 22.55 527.09c-9.29-5.36-8.13-14.74 2.6-20.93l476.54-275.13c10.73-6.19 26.96-6.87 36.25-1.5l248.63 143.55c9.29 5.36 8.13 14.74-2.6 20.93L307.44 669.14c-10.73 6.2-26.96 6.87-36.25 1.5z" opacity=".7" style="mix-blend-mode:lighten"/><g class="cls-85"><path fill="url(#_ÂÁ_Ï_ÌÌ_È_ËÂÌÚ_25-2)" stroke-width="0" d="m792.84 378.34-31.71 5.56-223.18-128.85c-9.29-5.36-25.52-4.69-36.25 1.5L72.01 504.62l-55.72 9.76v3.41h.02c-.09 3.48 1.94 6.82 6.24 9.3l248.63 143.55c9.29 5.36 25.52 4.69 36.25-1.5l476.53-275.13c5.85-3.38 8.83-7.69 8.85-11.79h.02v-3.88z" opacity=".5"/><path fill="url(#_ÂÁ_Ï_ÌÌ_È_ËÂÌÚ_25-3)" stroke-width="0" d="M271.18 666.85 22.55 523.3c-9.29-5.36-8.13-14.74 2.6-20.93l476.54-275.12c10.73-6.19 26.96-6.87 36.25-1.5L786.57 369.3c9.29 5.36 8.13 14.74-2.6 20.93L307.44 665.36c-10.73 6.2-26.96 6.87-36.25 1.5z" opacity=".7" style="mix-blend-mode:lighten"/><path d="M271.18 666.85 22.55 523.3c-9.29-5.36-8.13-14.74 2.6-20.93l476.54-275.12c10.73-6.19 26.96-6.87 36.25-1.5L786.57 369.3c9.29 5.36 8.13 14.74-2.6 20.93L307.44 665.36c-10.73 6.2-26.96 6.87-36.25 1.5z" class="cls-77"/></g><path fill="#45485f" stroke-width="0" d="M155.72 613.53c0 2.2-1.34 3.21-2.99 2.26l-19.5-11.26c-1.65-.95-2.99-3.51-2.99-5.71s1.34-3.21 2.99-2.26l19.5 11.26c1.65.95 2.99 3.51 2.99 5.71zm54.73 31.61c0 1.78-1.25 2.5-2.79 1.61-1.54-.89-2.79-3.05-2.79-4.83s1.25-2.5 2.79-1.61 2.79 3.05 2.79 4.83zm11 6.35c0 1.78-1.25 2.5-2.79 1.61-1.54-.89-2.79-3.05-2.79-4.83s1.25-2.5 2.79-1.61c1.54.89 2.79 3.05 2.79 4.83zm11 6.35c0 1.78-1.25 2.5-2.79 1.61-1.54-.89-2.79-3.05-2.79-4.83s1.25-2.5 2.79-1.61c1.54.89 2.79 3.05 2.79 4.83zM59.08 557.74c0 1.78-1.25 2.5-2.79 1.61-1.54-.89-2.79-3.05-2.79-4.83s1.25-2.5 2.79-1.61c1.54.89 2.79 3.05 2.79 4.83zm11 6.35c0 1.78-1.25 2.5-2.79 1.61-1.54-.89-2.79-3.05-2.79-4.83s1.25-2.5 2.79-1.61c1.54.89 2.79 3.05 2.79 4.83zm11 6.35c0 1.78-1.25 2.5-2.79 1.61-1.54-.89-2.79-3.05-2.79-4.83s1.25-2.5 2.79-1.61c1.54.89 2.79 3.05 2.79 4.83z"/><path fill="url(#_ÂÁ_Ï_ÌÌ_È_ËÂÌÚ_25-4)" stroke-width="0" d="M271.18 666.85 22.55 523.3c-9.29-5.36-8.13-14.74 2.6-20.93l476.54-275.12c10.73-6.19 26.96-6.87 36.25-1.5L786.57 369.3c9.29 5.36 8.13 14.74-2.6 20.93L307.44 665.36c-10.73 6.2-26.96 6.87-36.25 1.5z" opacity=".5"/><path fill="url(#_ÂÁ_Ï_ÌÌ_È_ËÂÌÚ_25-5)" stroke-width="0" d="M271.18 666.85 22.55 523.3c-9.29-5.36-8.13-14.74 2.6-20.93l476.54-275.12c10.73-6.19 26.96-6.87 36.25-1.5L786.57 369.3c9.29 5.36 8.13 14.74-2.6 20.93L307.44 665.36c-10.73 6.2-26.96 6.87-36.25 1.5z" opacity=".5"/><path fill="url(#_ÂÁ_Ï_ÌÌ_È_ËÂÌÚ_25-6)" stroke-width="0" d="M275.49 666.68 26.86 523.14c-10.08-6.11-11.88-12.55 2.6-20.93l476.53-275.13c4.83-2.79 10.77-4.45 16.69-4.95-7.27-.08-14.99 1.65-20.99 5.12L25.16 502.37c-10.73 6.2-11.89 15.57-2.6 20.93l248.63 143.55c5.11 2.95 12.32 4.06 19.56 3.45-5.72-.06-11.17-1.25-15.26-3.62z" opacity=".9"/><path d="M124.21 416.99c-.26 0-.52-.07-.76-.2L18.04 355.93c-.47-.27-.76-.77-.76-1.31s.29-1.04.76-1.31l105.4-60.86c.47-.27 1.05-.27 1.52 0l105.41 60.86c.47.27.76.77.76 1.31s-.29 1.04-.76 1.31l-105.4 60.86c-.23.14-.5.2-.76.2zM21.84 354.62l102.37 59.11 102.37-59.11-102.37-59.11-102.37 59.11z" class="cls-79"/><path d="m649.71 290.27-43.77 25.28 105.41 60.85 43.77-25.27-105.41-60.86z" class="cls-59"/><path d="M124.21 339.68 0 267.97l124.21-71.71 124.22 71.71-124.22 71.71z" class="cls-77"/><path d="M124.21 319.05 0 247.34l124.21-71.71 124.22 71.71-124.22 71.71z" class="cls-77"/><g stroke-width="0" class="cls-84"><path fill="url(#_ÂÁ_Ï_ÌÌ_È_ËÂÌÚ_22-2)" d="m124.21 191.66-95.9-55.37 95.9-55.37 95.9 55.37-95.9 55.37z"/><path fill="url(#_ÂÁ_Ï_ÌÌ_È_ËÂÌÚ_22-3)" d="M220.11 136.29v111.05l-95.9 55.37V191.66l95.9-55.37z"/><path fill="url(#_ÂÁ_Ï_ÌÌ_È_ËÂÌÚ_22-4)" d="M28.31 136.29v111.05l95.9 55.37V191.66l-95.9-55.37z"/></g><path fill="url(#_ÂÁ_Ï_ÌÌ_È_ËÂÌÚ_22-5)" stroke-width="0" d="m124.21 302.71-95.9-55.37 95.9-55.37 95.9 55.37-95.9 55.37z" opacity=".7" style="mix-blend-mode:lighten"/><path fill="url(#_ÂÁ_Ï_ÌÌ_È_ËÂÌÚ_20)" stroke-width="0" d="M248.43 247.34v20.63l-124.22 71.71v-20.63l124.22-71.71z"/><path d="M0 247.34v20.63l124.21 71.71v-20.63L0 247.34z" class="cls-77"/><path fill="url(#_ÂÁ_Ï_ÌÌ_È_ËÂÌÚ_23)" stroke-width="0" d="M0 247.34v20.63l124.21 71.71v-20.63L0 247.34z" opacity=".7" style="mix-blend-mode:lighten"/><path d="M124.21 167.22 0 95.51l124.21-71.72 124.22 71.72-124.22 71.71z" class="cls-77"/><path d="M0 74.88v20.63l124.21 71.71v-20.63L0 74.88z" class="cls-77"/><path d="M124.21 167.22v151.83L0 247.34V95.51l124.21 71.71z" class="cls-58"/><path d="M28.31 111.85v135.49l95.9 55.37 95.9-55.37V111.85l-95.9 55.37-95.9-55.37z" class="cls-58"/><path d="M124.21 167.22v135.49l-95.9-55.37V111.85l95.9 55.37z" class="cls-58"/><path d="M0 95.51v151.83l124.21 71.71 124.22-71.71V95.51l-124.22 71.71L0 95.51z" class="cls-43"/><path d="M124.21 146.59 0 74.88 124.21 3.16l124.22 71.72-124.22 71.71z" class="cls-77"/><path fill="url(#_ÂÁ_Ï_ÌÌ_È_ËÂÌÚ_22-6)" stroke-width="0" d="M124.21 146.59 0 74.88 124.21 3.16l124.22 71.72-124.22 71.71z" opacity=".7" style="mix-blend-mode:lighten"/><path fill="url(#_ÂÁ_Ï_ÌÌ_È_ËÂÌÚ_20-2)" stroke-width="0" d="M248.43 74.88v20.63l-124.22 71.71v-20.63l124.22-71.71z"/><path fill="url(#_ÂÁ_Ï_ÌÌ_È_ËÂÌÚ_23-2)" stroke-width="0" d="M0 74.88v20.63l124.21 71.71v-20.63L0 74.88z" opacity=".7" style="mix-blend-mode:lighten"/><path fill="url(#_ÂÁ_Ï_ÌÌ_È_ËÂÌÚ_22-7)" stroke-width="0" d="M2.93 74.88 125.68 4.01l-1.47-.85L0 74.88l124.21 71.71 1.47-.84L2.93 74.88z" style="mix-blend-mode:lighten"/><path d="M124.21 139.8 11.37 74.66l112.84-51.35 112.84 51.35-112.84 65.14zM11.37 69.71v4.95l112.84 65.14v-4.94L11.37 69.71z" class="cls-77"/><path d="M124.21 134.86 11.37 69.71 124.21 4.57l112.84 65.15-112.84 65.14z" class="cls-77"/><path fill="url(#_ÂÁ_Ï_ÌÌ_È_ËÂÌÚ_22-8)" stroke-width="0" d="M124.21 134.86 11.37 69.71 124.21 4.57l112.84 65.15-112.84 65.14z" opacity=".7" style="mix-blend-mode:lighten"/><path fill="url(#_ÂÁ_Ï_ÌÌ_È_ËÂÌÚ_20-3)" stroke-width="0" d="M237.05 69.72v4.94L124.21 139.8v-4.94l112.84-65.14z"/><path fill="url(#_ÂÁ_Ï_ÌÌ_È_ËÂÌÚ_23-3)" stroke-width="0" d="M11.37 69.71v4.95l112.84 65.14v-4.94L11.37 69.71z" opacity=".7" style="mix-blend-mode:lighten"/><path fill="url(#_ÂÁ_Ï_ÌÌ_È_ËÂÌÚ_22-9)" stroke-width="0" d="m14.04 69.71 111.5-64.37-1.33-.77L11.37 69.71l112.84 65.15 1.34-.77L14.04 69.71z" style="mix-blend-mode:lighten"/><path d="m47.51 72.17-4.26-2.46 80.96-46.74 4.26 2.46-80.96 46.74zm8.52 4.92-4.26-2.46 80.96-46.74 4.27 2.46-80.97 46.74zm8.53 4.93-4.27-2.46 80.97-46.75 4.26 2.46-80.96 46.75zm8.52 4.92-4.26-2.46 80.96-46.75 4.26 2.46-80.96 46.75zm8.52 4.92-4.26-2.46 80.96-46.75 4.26 2.46L81.6 91.86zm8.52 4.92-4.26-2.46 80.96-46.75 4.27 2.46-80.97 46.75zm8.53 4.92-4.27-2.46 80.97-46.75 4.26 2.46-80.96 46.75zm8.52 4.92-4.26-2.46 80.96-46.75 4.26 2.46-80.96 46.75zm8.52 4.92-4.26-2.46 80.96-46.75 4.26 2.46-80.96 46.75zm8.52 4.92-4.26-2.46 80.97-46.74 4.26 2.46-80.97 46.74z" class="cls-73"/><path d="m124.21 22.97 4.26 2.46-4.26 2.46v-4.92zm8.52 4.92 4.27 2.46-4.27 2.46v-4.92zm8.53 4.92 4.26 2.46-4.26 2.46v-4.92zm8.52 4.92 4.26 2.46-4.26 2.46v-4.92zm8.52 4.92 4.26 2.46-4.26 2.46v-4.92zm8.52 4.92 4.27 2.46-4.27 2.46v-4.92zm8.53 4.92 4.26 2.46-4.26 2.46v-4.92zm8.52 4.92 4.26 2.46-4.26 2.46v-4.92zm8.52 4.92 4.26 2.46-4.26 2.47v-4.93zm8.53 4.93 4.26 2.46-4.26 2.46v-4.92z" class="cls-81"/><g class="cls-85"><path d="m47.51 72.17-4.26-2.46 80.96-46.74 4.26 2.46-80.96 46.74zm8.52 4.92-4.26-2.46 80.96-46.74 4.27 2.46-80.97 46.74zm8.53 4.93-4.27-2.46 80.97-46.75 4.26 2.46-80.96 46.75zm8.52 4.92-4.26-2.46 80.96-46.75 4.26 2.46-80.96 46.75zm8.52 4.92-4.26-2.46 80.96-46.75 4.26 2.46L81.6 91.86zm8.52 4.92-4.26-2.46 80.96-46.75 4.27 2.46-80.97 46.75zm8.53 4.92-4.27-2.46 80.97-46.75 4.26 2.46-80.96 46.75zm8.52 4.92-4.26-2.46 80.96-46.75 4.26 2.46-80.96 46.75zm8.52 4.92-4.26-2.46 80.96-46.75 4.26 2.46-80.96 46.75zm8.52 4.92-4.26-2.46 80.97-46.74 4.26 2.46-80.97 46.74z" class="cls-74"/></g><path d="M0 95.51v151.83l1.71.99V96.49L0 95.51zm248.43 0v151.83l-1.71.99V96.49l1.71-.98zm-124.22 71.71-2.93-1.69v151.85l2.93 1.67 2.94-1.67V165.53l-2.94 1.69z" class="cls-44"/><path d="m1.71 232.38 112.94-70.68-80.53-46.49-32.41 17.72v99.45zm25.32 30.57 94.25-53.56v38.94l-62.34 33.04-31.91-18.42z" class="cls-43"/><g class="cls-1"><path d="m7.71 114.19 107.1 61.8v-4.83l-107.1-61.8v4.83zm0 11.34 107.1 61.8v-4.83L7.71 120.7v4.83zm0 11.34 107.1 61.8v-4.83l-107.1-61.8v4.83zm0 11.34 107.1 61.8v-4.83l-107.1-61.8v4.83zm0 11.34 107.1 61.8v-4.83l-107.1-61.8v4.83zm0 11.34 107.1 61.8v-4.83l-107.1-61.8v4.83zm0 11.34 107.1 61.8v-4.83L7.71 177.4v4.83zm0 11.34 107.1 61.8v-4.83l-107.1-61.8v4.83zm0 11.34 107.1 61.8v-4.83l-107.1-61.8v4.83zm0 11.34 107.1 61.8v-4.83l-107.1-61.8v4.83zm0 11.34 107.1 61.8v-4.84L7.71 222.76v4.83zm0 11.34 107.1 61.8v-4.84L7.71 234.1v4.83z" class="cls-78"/></g><path d="M709.88 336.52 585.66 264.8l124.21-71.71 124.22 71.72-124.21 71.71z" class="cls-77"/><path d="m709.88 315.89-124.22-71.72 124.21-71.71 124.22 71.72-124.21 71.71z" class="cls-77"/><g stroke-width="0" class="cls-84"><path fill="url(#_ÂÁ_Ï_ÌÌ_È_ËÂÌÚ_22-10)" d="m709.88 188.49-95.91-55.37 95.9-55.36 95.91 55.37-95.9 55.36z"/><path fill="url(#_ÂÁ_Ï_ÌÌ_È_ËÂÌÚ_22-11)" d="M805.78 133.13v111.05l-95.9 55.36V188.49l95.9-55.36z"/><path fill="url(#_ÂÁ_Ï_ÌÌ_È_ËÂÌÚ_22-12)" d="M613.98 133.13v111.05l95.9 55.36V188.49l-95.9-55.36z"/></g><path fill="url(#_ÂÁ_Ï_ÌÌ_È_ËÂÌÚ_22-13)" stroke-width="0" d="m709.88 299.54-95.91-55.37 95.9-55.36 95.91 55.37-95.9 55.36z" opacity=".7" style="mix-blend-mode:lighten"/><path fill="url(#_ÂÁ_Ï_ÌÌ_È_ËÂÌÚ_20-4)" stroke-width="0" d="M834.09 244.18v20.63l-124.21 71.71v-20.63l124.21-71.71z"/><path d="M585.66 244.17v20.63l124.22 71.72v-20.63l-124.22-71.72z" class="cls-77"/><path fill="url(#_ÂÁ_Ï_ÌÌ_È_ËÂÌÚ_23-4)" stroke-width="0" d="M585.66 244.17v20.63l124.22 71.72v-20.63l-124.22-71.72z" opacity=".7" style="mix-blend-mode:lighten"/><path d="M709.88 164.06 585.66 92.34l124.21-71.71 124.22 71.71-124.21 71.72z" class="cls-77"/><path d="M585.66 71.71v20.63l124.22 71.72v-20.63L585.66 71.71z" class="cls-77"/><path d="M709.88 164.06v151.83l-124.22-71.72V92.34l124.22 71.72z" class="cls-58"/><path d="M613.97 108.69v135.48l95.91 55.37 95.9-55.36V108.69l-95.9 55.37-95.91-55.37z" class="cls-58"/><path d="M709.88 164.06v135.48l-95.91-55.37V108.69l95.91 55.37z" class="cls-58"/><path d="M585.66 92.34v151.83l124.22 71.72 124.21-71.71V92.34l-124.21 71.72-124.22-71.72z" class="cls-43"/><path d="M709.88 143.43 585.66 71.71 709.87 0l124.22 71.72-124.21 71.71z" class="cls-77"/><path fill="url(#_ÂÁ_Ï_ÌÌ_È_ËÂÌÚ_22-14)" stroke-width="0" d="M709.88 143.43 585.66 71.71 709.87 0l124.22 71.72-124.21 71.71z" opacity=".7" style="mix-blend-mode:lighten"/><path fill="url(#_ÂÁ_Ï_ÌÌ_È_ËÂÌÚ_20-5)" stroke-width="0" d="M834.09 71.72v20.62l-124.21 71.72v-20.63l124.21-71.71z"/><path fill="url(#_ÂÁ_Ï_ÌÌ_È_ËÂÌÚ_23-5)" stroke-width="0" d="M585.66 71.71v20.63l124.22 71.72v-20.63L585.66 71.71z" opacity=".7" style="mix-blend-mode:lighten"/><path fill="url(#_ÂÁ_Ï_ÌÌ_È_ËÂÌÚ_22-15)" stroke-width="0" d="M588.6 71.71 711.34.85 709.87 0 585.66 71.71l124.22 71.72 1.46-.85L588.6 71.71z" style="mix-blend-mode:lighten"/><path d="M709.88 136.64 597.04 71.49l112.83-51.35 112.84 51.35-112.83 65.15z" class="cls-77"/><path d="M597.04 66.55v4.94l112.84 65.15v-4.94L597.04 66.55z" class="cls-77"/><path d="M709.88 131.7 597.04 66.55 709.87 1.4l112.84 65.15-112.83 65.15z" class="cls-77"/><path fill="url(#_ÂÁ_Ï_ÌÌ_È_ËÂÌÚ_22-16)" stroke-width="0" d="M709.88 131.7 597.04 66.55 709.87 1.4l112.84 65.15-112.83 65.15z" opacity=".7" style="mix-blend-mode:lighten"/><path fill="url(#_ÂÁ_Ï_ÌÌ_È_ËÂÌÚ_20-6)" stroke-width="0" d="M822.71 66.55v4.94l-112.83 65.15v-4.94l112.83-65.15z"/><path fill="url(#_ÂÁ_Ï_ÌÌ_È_ËÂÌÚ_23-6)" stroke-width="0" d="M597.04 66.55v4.94l112.84 65.15v-4.94L597.04 66.55z" opacity=".7" style="mix-blend-mode:lighten"/><path fill="url(#_ÂÁ_Ï_ÌÌ_È_ËÂÌÚ_22-17)" stroke-width="0" d="M599.7 66.55 711.21 2.17l-1.34-.77-112.83 65.15 112.84 65.15 1.33-.77L599.7 66.55z" style="mix-blend-mode:lighten"/><path d="m633.17 69.01-4.26-2.46 80.96-46.74 4.27 2.46-80.97 46.74zm8.53 4.92-4.27-2.46 80.97-46.74 4.26 2.46-80.96 46.74zm8.52 4.92-4.26-2.46 80.96-46.74 4.26 2.46-80.96 46.74zm8.52 4.92-4.26-2.46 80.96-46.74 4.26 2.46-80.96 46.74zm8.52 4.92L663 86.23l80.96-46.74 4.27 2.46-80.97 46.74zm8.53 4.92-4.27-2.46 80.97-46.74 4.26 2.46-80.96 46.74zm8.52 4.92-4.26-2.46 80.96-46.74 4.26 2.46-80.96 46.74zm8.52 4.92-4.26-2.46 80.96-46.74 4.26 2.46-80.96 46.74zm8.52 4.92-4.26-2.46 80.97-46.74 4.26 2.46-80.97 46.74zm8.53 4.92-4.26-2.46 80.96-46.74 4.26 2.46-80.96 46.74z" class="cls-73"/><path d="m709.87 19.81 4.27 2.46-4.27 2.46v-4.92zm8.53 4.92 4.26 2.46-4.26 2.46v-4.92zm8.52 4.92 4.26 2.46-4.26 2.46v-4.92zm8.52 4.92 4.26 2.46-4.26 2.46v-4.92zm8.52 4.92 4.27 2.46-4.27 2.46v-4.92zm8.53 4.92 4.26 2.46-4.26 2.46v-4.92zm8.52 4.92 4.26 2.46-4.26 2.46v-4.92zm8.52 4.92 4.26 2.46-4.26 2.46v-4.92zm8.53 4.92 4.26 2.46-4.26 2.46v-4.92zm8.52 4.92 4.26 2.46-4.26 2.46v-4.92z" class="cls-81"/><g class="cls-85"><path d="m633.17 69.01-4.26-2.46 80.96-46.74 4.27 2.46-80.97 46.74zm8.53 4.92-4.27-2.46 80.97-46.74 4.26 2.46-80.96 46.74zm8.52 4.92-4.26-2.46 80.96-46.74 4.26 2.46-80.96 46.74zm8.52 4.92-4.26-2.46 80.96-46.74 4.26 2.46-80.96 46.74zm8.52 4.92L663 86.23l80.96-46.74 4.27 2.46-80.97 46.74zm8.53 4.92-4.27-2.46 80.97-46.74 4.26 2.46-80.96 46.74zm8.52 4.92-4.26-2.46 80.96-46.74 4.26 2.46-80.96 46.74zm8.52 4.92-4.26-2.46 80.96-46.74 4.26 2.46-80.96 46.74zm8.52 4.92-4.26-2.46 80.97-46.74 4.26 2.46-80.97 46.74zm8.53 4.92-4.26-2.46 80.96-46.74 4.26 2.46-80.96 46.74z" class="cls-74"/></g><path d="M585.66 92.34v151.83l1.71.99V93.33l-1.71-.99zm248.43 0v151.83l-1.71.99V93.33l1.71-.99zm-124.21 71.72-2.94-1.69v151.85l2.94 1.67 2.93-1.67V162.37l-2.93 1.69z" class="cls-44"/><path d="m587.37 229.22 112.94-70.69-80.52-46.49-32.42 17.72v99.46zm25.33 30.56 94.24-53.56v38.94L644.6 278.2l-31.9-18.42z" class="cls-43"/><g class="cls-1"><path d="m593.38 111.03 107.1 61.79v-4.83l-107.1-61.79v4.83zm0 11.34 107.1 61.79v-4.83l-107.1-61.79v4.83zm0 11.34 107.1 61.79v-4.83l-107.1-61.79v4.83zm0 11.34 107.1 61.79v-4.83l-107.1-61.79v4.83zm0 11.34 107.1 61.79v-4.83l-107.1-61.79v4.83zm0 11.34 107.1 61.79v-4.83l-107.1-61.79v4.83zm0 11.34 107.1 61.79v-4.83l-107.1-61.79v4.83zm0 11.34 107.1 61.79v-4.83l-107.1-61.79v4.83zm0 11.34 107.1 61.79v-4.83l-107.1-61.79v4.83zm0 11.34 107.1 61.79v-4.83l-107.1-61.8v4.84zm0 11.34 107.1 61.79v-4.83l-107.1-61.8v4.84zm0 11.34 107.1 61.79v-4.83l-107.1-61.8v4.84z" class="cls-78"/></g><path d="M135.86 172.78c0 1.33-.94 2.96-2.09 3.62-1.16.67-2.09.13-2.09-1.21s.94-2.96 2.09-3.62c1.16-.67 2.09-.13 2.09 1.21zm6.88-3.98c0 1.33-.94 2.96-2.09 3.62-1.16.67-2.09.13-2.09-1.21s.94-2.96 2.09-3.62c1.16-.67 2.09-.13 2.09 1.21zm6.89-3.97c0 1.33-.94 2.96-2.09 3.62-1.16.67-2.09.13-2.09-1.21s.94-2.96 2.09-3.62c1.16-.67 2.09-.13 2.09 1.21zm55.88-29.85-52.71 30.43v-4.83l52.71-30.43v4.83zm-69.65 49.14c0 1.33-.94 2.96-2.09 3.62-1.16.67-2.09.13-2.09-1.21s.94-2.96 2.09-3.62 2.09-.13 2.09 1.21zm6.88-3.98c0 1.33-.94 2.96-2.09 3.62-1.16.67-2.09.13-2.09-1.21s.94-2.96 2.09-3.62c1.16-.67 2.09-.13 2.09 1.21zm6.89-3.97c0 1.33-.94 2.96-2.09 3.62-1.16.67-2.09.13-2.09-1.21s.94-2.96 2.09-3.62c1.16-.67 2.09-.13 2.09 1.21zm55.88-29.85-52.71 30.43v-4.83l52.71-30.43v4.83zm-69.65 49.14c0 1.33-.94 2.96-2.09 3.62s-2.09.13-2.09-1.21.94-2.96 2.09-3.62c1.16-.67 2.09-.13 2.09 1.21zm6.88-3.98c0 1.33-.94 2.96-2.09 3.62-1.16.67-2.09.13-2.09-1.21s.94-2.96 2.09-3.62c1.16-.67 2.09-.13 2.09 1.21zm6.89-3.97c0 1.33-.94 2.96-2.09 3.62-1.16.67-2.09.13-2.09-1.21s.94-2.96 2.09-3.62c1.16-.67 2.09-.13 2.09 1.21zm55.88-29.85-52.71 30.43v-4.83l52.71-30.43v4.83zm-69.65 49.14c0 1.33-.94 2.96-2.09 3.62-1.16.67-2.09.13-2.09-1.21s.94-2.96 2.09-3.62c1.16-.67 2.09-.13 2.09 1.21zm6.88-3.98c0 1.33-.94 2.96-2.09 3.62-1.16.67-2.09.13-2.09-1.21s.94-2.96 2.09-3.62c1.16-.67 2.09-.13 2.09 1.21zm6.89-3.97c0 1.33-.94 2.96-2.09 3.62-1.16.67-2.09.13-2.09-1.21s.94-2.96 2.09-3.62c1.16-.67 2.09-.13 2.09 1.21zM205.51 169l-52.71 30.43v-4.83l52.71-30.43V169zm-69.65 49.13c0 1.33-.94 2.96-2.09 3.62-1.16.67-2.09.13-2.09-1.21s.94-2.96 2.09-3.62 2.09-.13 2.09 1.21zm6.88-3.97c0 1.33-.94 2.96-2.09 3.62-1.16.67-2.09.13-2.09-1.21s.94-2.96 2.09-3.62c1.16-.67 2.09-.13 2.09 1.21zm6.89-3.97c0 1.33-.94 2.96-2.09 3.62-1.16.67-2.09.13-2.09-1.21s.94-2.96 2.09-3.62c1.16-.67 2.09-.13 2.09 1.21zm55.88-29.85-52.71 30.43v-4.83l52.71-30.43v4.83zm-69.65 49.13c0 1.33-.94 2.96-2.09 3.62-1.16.67-2.09.13-2.09-1.21s.94-2.96 2.09-3.62c1.16-.67 2.09-.13 2.09 1.21zm6.88-3.97c0 1.33-.94 2.96-2.09 3.62-1.16.67-2.09.13-2.09-1.21s.94-2.96 2.09-3.62c1.16-.67 2.09-.13 2.09 1.21zm6.89-3.97c0 1.33-.94 2.96-2.09 3.62-1.16.67-2.09.13-2.09-1.21s.94-2.96 2.09-3.62c1.16-.67 2.09-.13 2.09 1.21zm55.88-29.85-52.71 30.43v-4.83l52.71-30.43v4.83zm-69.65 49.13c0 1.33-.94 2.96-2.09 3.62-1.16.67-2.09.13-2.09-1.21s.94-2.96 2.09-3.62c1.16-.67 2.09-.13 2.09 1.21zm6.88-3.97c0 1.33-.94 2.96-2.09 3.62-1.16.67-2.09.13-2.09-1.21s.94-2.96 2.09-3.62c1.16-.67 2.09-.13 2.09 1.21zm6.89-3.97c0 1.33-.94 2.96-2.09 3.62-1.16.67-2.09.13-2.09-1.21s.94-2.96 2.09-3.62c1.16-.67 2.09-.13 2.09 1.21zm55.88-29.85-52.71 30.43v-4.83l52.71-30.43v4.83zm-69.65 49.13c0 1.33-.94 2.96-2.09 3.62-1.16.67-2.09.13-2.09-1.21s.94-2.96 2.09-3.62c1.16-.67 2.09-.13 2.09 1.21zm6.88-3.97c0 1.33-.94 2.96-2.09 3.62-1.16.67-2.09.13-2.09-1.21s.94-2.96 2.09-3.62c1.16-.67 2.09-.13 2.09 1.21zm6.89-3.97c0 1.33-.94 2.96-2.09 3.62-1.16.67-2.09.13-2.09-1.21s.94-2.96 2.09-3.62c1.16-.67 2.09-.13 2.09 1.21zm55.88-29.85-52.71 30.43v-4.83l52.71-30.43v4.83zm-69.65 49.13c0 1.33-.94 2.96-2.09 3.62-1.16.67-2.09.13-2.09-1.21s.94-2.96 2.09-3.62c1.16-.67 2.09-.13 2.09 1.21zm6.88-3.97c0 1.33-.94 2.96-2.09 3.62-1.16.67-2.09.13-2.09-1.21s.94-2.96 2.09-3.62c1.16-.67 2.09-.13 2.09 1.21zm6.89-3.97c0 1.33-.94 2.96-2.09 3.62-1.16.67-2.09.13-2.09-1.21s.94-2.96 2.09-3.62c1.16-.67 2.09-.13 2.09 1.21zm55.88-29.85-52.71 30.43v-4.83l52.71-30.43v4.83zm-69.65 49.13c0 1.33-.94 2.96-2.09 3.62-1.16.67-2.09.13-2.09-1.21s.94-2.96 2.09-3.62c1.16-.67 2.09-.13 2.09 1.21zm6.88-3.97c0 1.33-.94 2.96-2.09 3.62-1.16.67-2.09.13-2.09-1.21s.94-2.96 2.09-3.62c1.16-.67 2.09-.13 2.09 1.21zm6.89-3.97c0 1.33-.94 2.96-2.09 3.62-1.16.67-2.09.13-2.09-1.21s.94-2.96 2.09-3.62c1.16-.67 2.09-.13 2.09 1.21zm55.88-29.85-52.71 30.43v-4.83l52.71-30.43v4.83zm-69.65 49.13c0 1.33-.94 2.96-2.09 3.62-1.16.67-2.09.13-2.09-1.21s.94-2.96 2.09-3.62c1.16-.67 2.09-.13 2.09 1.21zm6.88-3.97c0 1.33-.94 2.96-2.09 3.62-1.16.67-2.09.13-2.09-1.21s.94-2.96 2.09-3.62c1.16-.67 2.09-.13 2.09 1.21zm6.89-3.98c0 1.33-.94 2.96-2.09 3.62-1.16.67-2.09.13-2.09-1.21s.94-2.96 2.09-3.62c1.16-.67 2.09-.13 2.09 1.21zm55.88-29.84-52.71 30.43v-4.83l52.71-30.43v4.83zm-69.65 49.13c0 1.33-.94 2.96-2.09 3.62-1.16.67-2.09.13-2.09-1.21s.94-2.96 2.09-3.62c1.16-.67 2.09-.13 2.09 1.21zm6.88-3.97c0 1.33-.94 2.96-2.09 3.62-1.16.67-2.09.13-2.09-1.21s.94-2.96 2.09-3.62c1.16-.67 2.09-.13 2.09 1.21zm6.89-3.98c0 1.33-.94 2.96-2.09 3.62-1.16.67-2.09.13-2.09-1.21s.94-2.96 2.09-3.62c1.16-.67 2.09-.13 2.09 1.21zm55.88-29.84-52.71 30.43v-4.83l52.71-30.43v4.83z" class="cls-80"/><path d="m241.42 239.18-30.95 17.87v-129.3l30.95-17.86v129.29z" class="cls-42"/><path d="M415.59 336.51c-.26 0-.52-.06-.76-.2L187.37 204.99c-.73-.42-.97-1.34-.55-2.07a1.51 1.51 0 0 1 2.07-.55l227.46 131.32c.73.42.97 1.34.55 2.07-.28.49-.79.76-1.31.76z" class="cls-79"/><path d="m414.59 530.65-163.21-94.23 163.2-94.23 163.21 94.23-163.2 94.22zm-159.12-94.23 159.12 91.87 159.11-91.86-159.12-91.87-159.11 91.86z" class="cls-80"/><path d="m414.58 507.45-124.21-71.71 124.21-71.72 124.22 71.72-124.22 71.71z" class="cls-77"/><path d="m414.58 486.82-124.21-71.71 124.21-71.72 124.22 71.72-124.22 71.71z" class="cls-77"/><g stroke-width="0" class="cls-84"><path fill="url(#_ÂÁ_Ï_ÌÌ_È_ËÂÌÚ_22-18)" d="m414.58 359.43-95.9-55.37 95.9-55.37 95.9 55.37-95.9 55.37z"/><path fill="url(#_ÂÁ_Ï_ÌÌ_È_ËÂÌÚ_22-19)" d="m510.48 304.06.01 111.05-95.91 55.37V359.43l95.9-55.37z"/><path fill="url(#_ÂÁ_Ï_ÌÌ_È_ËÂÌÚ_22-20)" d="M318.68 304.06v111.05l95.9 55.37V359.43l-95.9-55.37z"/></g><path fill="url(#_ÂÁ_Ï_ÌÌ_È_ËÂÌÚ_22-21)" stroke-width="0" d="m414.58 470.48-95.9-55.37 95.9-55.37 95.91 55.37-95.91 55.37z" opacity=".7" style="mix-blend-mode:lighten"/><path fill="url(#_ÂÁ_Ï_ÌÌ_È_ËÂÌÚ_20-7)" stroke-width="0" d="M538.8 415.11v20.63l-124.22 71.71v-20.63l124.22-71.71z"/><path d="M290.37 415.11v20.63l124.21 71.71v-20.63l-124.21-71.71z" class="cls-77"/><path fill="url(#_ÂÁ_Ï_ÌÌ_È_ËÂÌÚ_23-7)" stroke-width="0" d="M290.37 415.11v20.63l124.21 71.71v-20.63l-124.21-71.71z" opacity=".7" style="mix-blend-mode:lighten"/><path d="m414.58 334.99-124.21-71.71 124.21-71.72 124.22 71.72-124.22 71.71z" class="cls-77"/><path d="M290.37 242.65v20.63l124.21 71.71v-20.63l-124.21-71.71z" class="cls-77"/><path d="M414.58 334.99v151.83l-124.21-71.71V263.28l124.21 71.71z" class="cls-58"/><path d="M318.68 279.62v135.49l95.9 55.37 95.91-55.37V279.62l-95.91 55.37-95.9-55.37z" class="cls-58"/><path d="M414.58 334.99v135.49l-95.9-55.37V279.62l95.9 55.37z" class="cls-58"/><path d="M290.37 263.28v151.83l124.21 71.71 124.22-71.71V263.28l-124.22 71.71-124.21-71.71z" class="cls-43"/><path d="m414.58 314.36-124.21-71.71 124.21-71.72 124.22 71.72-124.22 71.71z" class="cls-77"/><path fill="url(#_ÂÁ_Ï_ÌÌ_È_ËÂÌÚ_22-22)" stroke-width="0" d="m414.58 314.36-124.21-71.71 124.21-71.72 124.22 71.72-124.22 71.71z" opacity=".7" style="mix-blend-mode:lighten"/><path fill="url(#_ÂÁ_Ï_ÌÌ_È_ËÂÌÚ_20-8)" stroke-width="0" d="M538.8 242.65v20.63l-124.22 71.71v-20.63l124.22-71.71z"/><path fill="url(#_ÂÁ_Ï_ÌÌ_È_ËÂÌÚ_23-8)" stroke-width="0" d="M290.37 242.65v20.63l124.21 71.71v-20.63l-124.21-71.71z" opacity=".7" style="mix-blend-mode:lighten"/><path fill="url(#_ÂÁ_Ï_ÌÌ_È_ËÂÌÚ_22-23)" stroke-width="0" d="m293.3 242.65 122.75-70.87-1.47-.85-124.21 71.72 124.21 71.71 1.47-.85-122.75-70.86z" style="mix-blend-mode:lighten"/><path d="m414.58 307.57-112.83-65.15 112.83-51.34 112.84 51.35-112.84 65.14z" class="cls-77"/><path d="M301.75 237.48v4.94l112.83 65.15v-4.94l-112.83-65.15z" class="cls-77"/><path d="m414.58 302.63-112.83-65.15 112.83-65.15 112.84 65.15-112.84 65.15z" class="cls-77"/><path fill="url(#_ÂÁ_Ï_ÌÌ_È_ËÂÌÚ_22-24)" stroke-width="0" d="m414.58 302.63-112.83-65.15 112.83-65.15 112.84 65.15-112.84 65.15z" opacity=".7" style="mix-blend-mode:lighten"/><path fill="url(#_ÂÁ_Ï_ÌÌ_È_ËÂÌÚ_20-9)" stroke-width="0" d="M527.42 237.48v4.95l-112.84 65.14v-4.94l112.84-65.15z"/><path fill="url(#_ÂÁ_Ï_ÌÌ_È_ËÂÌÚ_23-9)" stroke-width="0" d="M301.75 237.48v4.94l112.83 65.15v-4.94l-112.83-65.15z" opacity=".7" style="mix-blend-mode:lighten"/><path fill="url(#_ÂÁ_Ï_ÌÌ_È_ËÂÌÚ_22-25)" stroke-width="0" d="m304.41 237.48 111.5-64.38-1.33-.77-112.83 65.15 112.83 65.15 1.34-.77-111.51-64.38z" style="mix-blend-mode:lighten"/><path d="m337.88 239.94-4.26-2.46 80.96-46.74 4.26 2.46-80.96 46.74zm8.52 4.92-4.26-2.46 80.96-46.74 4.27 2.46-80.97 46.74zm8.53 4.92-4.27-2.46 80.97-46.74 4.26 2.46-80.96 46.74zm8.52 4.92-4.26-2.46 80.96-46.74 4.26 2.46-80.96 46.74zm8.52 4.92-4.26-2.46 80.96-46.74 4.26 2.46-80.96 46.74zm8.52 4.92-4.26-2.46 80.97-46.74 4.26 2.46-80.97 46.74zm8.53 4.93-4.26-2.47 80.96-46.74 4.26 2.46-80.96 46.75zm8.52 4.92-4.26-2.46 80.96-46.75 4.26 2.46-80.96 46.75zm8.52 4.92-4.26-2.46 80.96-46.75 4.26 2.46-80.96 46.75zm8.52 4.92-4.26-2.46 80.97-46.75 4.26 2.46-80.97 46.75z" class="cls-73"/><path d="m414.58 190.74 4.26 2.46-4.26 2.46v-4.92zm8.52 4.92 4.27 2.46-4.27 2.46v-4.92zm8.53 4.92 4.26 2.46-4.26 2.46v-4.92zm8.52 4.92 4.26 2.46-4.26 2.46v-4.92zm8.52 4.92 4.26 2.46-4.26 2.46v-4.92zm8.53 4.92 4.26 2.46-4.26 2.46v-4.92zm8.52 4.92 4.26 2.46-4.26 2.46v-4.92zm8.52 4.92 4.26 2.46-4.26 2.46v-4.92zm8.52 4.92 4.26 2.46-4.26 2.46v-4.92zm8.53 4.92 4.26 2.46-4.26 2.46v-4.92z" class="cls-81"/><g class="cls-85"><path d="m337.88 239.94-4.26-2.46 80.96-46.74 4.26 2.46-80.96 46.74zm8.52 4.92-4.26-2.46 80.96-46.74 4.27 2.46-80.97 46.74zm8.53 4.92-4.27-2.46 80.97-46.74 4.26 2.46-80.96 46.74zm8.52 4.92-4.26-2.46 80.96-46.74 4.26 2.46-80.96 46.74zm8.52 4.92-4.26-2.46 80.96-46.74 4.26 2.46-80.96 46.74zm8.52 4.92-4.26-2.46 80.97-46.74 4.26 2.46-80.97 46.74zm8.53 4.93-4.26-2.47 80.96-46.74 4.26 2.46-80.96 46.75zm8.52 4.92-4.26-2.46 80.96-46.75 4.26 2.46-80.96 46.75zm8.52 4.92-4.26-2.46 80.96-46.75 4.26 2.46-80.96 46.75zm8.52 4.92-4.26-2.46 80.97-46.75 4.26 2.46-80.97 46.75z" class="cls-74"/></g><path d="M290.37 263.28v151.83l1.71.98V264.26l-1.71-.98zm248.43 0v151.83l-1.71.98V264.26l1.71-.98zm-124.22 71.71-2.93-1.69v151.85l2.93 1.67 2.94-1.67V333.3l-2.94 1.69z" class="cls-44"/><path d="m292.08 400.15 112.94-70.68-80.53-46.49-32.41 17.72v99.45zm25.32 30.57 94.25-53.57v38.94l-62.34 33.05-31.91-18.42z" class="cls-43"/><g class="cls-1"><path d="m298.08 281.96 107.1 61.8v-4.83l-107.1-61.8v4.83zm0 11.34 107.1 61.8v-4.83l-107.1-61.8v4.83zm0 11.34 107.1 61.8v-4.83l-107.1-61.8v4.83zm0 11.34 107.1 61.8v-4.84l-107.1-61.79v4.83zm0 11.34 107.1 61.8v-4.84l-107.1-61.79v4.83zm0 11.34 107.1 61.8v-4.84l-107.1-61.79v4.83zm0 11.34 107.1 61.8v-4.84l-107.1-61.79V350zm0 11.34 107.1 61.8v-4.84l-107.1-61.79v4.83zm0 11.34 107.1 61.79v-4.83l-107.1-61.79v4.83zm0 11.34 107.1 61.79v-4.83l-107.1-61.79v4.83zm0 11.34 107.1 61.79v-4.83l-107.1-61.79v4.83zm0 11.34 107.1 61.79v-4.83l-107.1-61.79v4.83z" class="cls-78"/></g><path d="M489.16 250.16c1.23.71 1.23 1.86 0 2.57-1.23.71-3.22.71-4.45 0s-1.23-1.86 0-2.57 3.22-.71 4.45 0zm6.94-4c1.23.71 1.23 1.86 0 2.57-1.23.71-3.22.71-4.45 0s-1.23-1.86 0-2.57c1.23-.71 3.22-.71 4.45 0zm6.94-4.01c1.23.71 1.23 1.86 0 2.57s-3.22.71-4.45 0-1.23-1.86 0-2.57c1.23-.71 3.22-.71 4.45 0z" class="cls-79"/><path d="M426.23 340.54c0 1.33-.94 2.96-2.09 3.62-1.16.67-2.09.13-2.09-1.21s.94-2.96 2.09-3.62c1.16-.67 2.09-.13 2.09 1.21zm6.89-3.97c0 1.33-.94 2.96-2.09 3.62-1.16.67-2.09.13-2.09-1.21s.94-2.96 2.09-3.62c1.16-.67 2.09-.13 2.09 1.21zm6.88-3.97c0 1.33-.94 2.96-2.09 3.62-1.16.67-2.09.13-2.09-1.21s.94-2.96 2.09-3.62c1.16-.67 2.09-.13 2.09 1.21zm55.88-29.85-52.71 30.43v-4.83l52.71-30.43v4.83zm-69.65 49.13c0 1.33-.94 2.96-2.09 3.62-1.16.67-2.09.13-2.09-1.21s.94-2.96 2.09-3.62c1.16-.67 2.09-.13 2.09 1.21zm6.89-3.97c0 1.33-.94 2.96-2.09 3.62-1.16.67-2.09.13-2.09-1.21s.94-2.96 2.09-3.62c1.16-.67 2.09-.13 2.09 1.21zm6.88-3.97c0 1.33-.94 2.96-2.09 3.62-1.16.67-2.09.13-2.09-1.21s.94-2.96 2.09-3.62c1.16-.67 2.09-.13 2.09 1.21zm55.88-29.85-52.71 30.43v-4.83l52.71-30.43v4.83zm-69.65 49.13c0 1.33-.94 2.96-2.09 3.62-1.16.67-2.09.13-2.09-1.21s.94-2.96 2.09-3.62c1.16-.67 2.09-.13 2.09 1.21zm6.89-3.97c0 1.33-.94 2.96-2.09 3.62-1.16.67-2.09.13-2.09-1.21s.94-2.96 2.09-3.62c1.16-.67 2.09-.13 2.09 1.21zm6.88-3.98c0 1.33-.94 2.96-2.09 3.62-1.16.67-2.09.13-2.09-1.21s.94-2.96 2.09-3.62c1.16-.67 2.09-.13 2.09 1.21zm55.88-29.84-52.71 30.43v-4.83l52.71-30.43v4.83zm-69.65 49.13c0 1.33-.94 2.96-2.09 3.62-1.16.67-2.09.13-2.09-1.21s.94-2.96 2.09-3.62c1.16-.67 2.09-.13 2.09 1.21zm6.89-3.97c0 1.33-.94 2.96-2.09 3.62-1.16.67-2.09.13-2.09-1.21s.94-2.96 2.09-3.62c1.16-.67 2.09-.13 2.09 1.21zm6.88-3.98c0 1.33-.94 2.96-2.09 3.62-1.16.67-2.09.13-2.09-1.21s.94-2.96 2.09-3.62c1.16-.67 2.09-.13 2.09 1.21zm55.88-29.84-52.71 30.43v-4.83l52.71-30.43v4.83zm-69.65 49.13c0 1.33-.94 2.96-2.09 3.62-1.16.67-2.09.13-2.09-1.21s.94-2.96 2.09-3.62c1.16-.67 2.09-.13 2.09 1.21zm6.89-3.97c0 1.33-.94 2.96-2.09 3.62-1.16.67-2.09.13-2.09-1.21s.94-2.96 2.09-3.62c1.16-.67 2.09-.13 2.09 1.21zm6.88-3.98c0 1.33-.94 2.96-2.09 3.62-1.16.67-2.09.13-2.09-1.21s.94-2.96 2.09-3.62c1.16-.67 2.09-.13 2.09 1.21zm55.88-29.84-52.71 30.43v-4.83l52.71-30.43v4.83zm-69.65 49.13c0 1.33-.94 2.96-2.09 3.62-1.16.67-2.09.13-2.09-1.21s.94-2.96 2.09-3.62c1.16-.67 2.09-.13 2.09 1.21zm6.89-3.97c0 1.33-.94 2.96-2.09 3.62s-2.09.13-2.09-1.21.94-2.96 2.09-3.62c1.16-.67 2.09-.13 2.09 1.21zm6.88-3.98c0 1.33-.94 2.96-2.09 3.62-1.16.67-2.09.13-2.09-1.21s.94-2.96 2.09-3.62c1.16-.67 2.09-.13 2.09 1.21zm55.88-29.84-52.71 30.43v-4.83l52.71-30.43v4.83zm-69.65 49.13c0 1.33-.94 2.96-2.09 3.62-1.16.67-2.09.13-2.09-1.21s.94-2.96 2.09-3.62c1.16-.67 2.09-.13 2.09 1.21zm6.89-3.97c0 1.33-.94 2.96-2.09 3.62-1.16.67-2.09.13-2.09-1.21s.94-2.96 2.09-3.62c1.16-.67 2.09-.13 2.09 1.21zm6.88-3.98c0 1.33-.94 2.96-2.09 3.62-1.16.67-2.09.13-2.09-1.21s.94-2.96 2.09-3.62c1.16-.67 2.09-.13 2.09 1.21zm55.88-29.84-52.71 30.43v-4.83l52.71-30.43v4.83zm-69.65 49.13c0 1.33-.94 2.96-2.09 3.62-1.16.67-2.09.13-2.09-1.21s.94-2.96 2.09-3.62c1.16-.67 2.09-.13 2.09 1.21zm6.89-3.97c0 1.33-.94 2.96-2.09 3.62-1.16.67-2.09.13-2.09-1.21s.94-2.96 2.09-3.62 2.09-.13 2.09 1.21zm6.88-3.98c0 1.33-.94 2.96-2.09 3.62-1.16.67-2.09.13-2.09-1.21s.94-2.96 2.09-3.62c1.16-.67 2.09-.13 2.09 1.21zm55.88-29.84-52.71 30.43v-4.83l52.71-30.43v4.83zm-69.65 49.13c0 1.33-.94 2.96-2.09 3.62-1.16.67-2.09.13-2.09-1.21s.94-2.96 2.09-3.62c1.16-.67 2.09-.13 2.09 1.21zm6.89-3.97c0 1.33-.94 2.96-2.09 3.62s-2.09.13-2.09-1.21.94-2.96 2.09-3.62c1.16-.67 2.09-.13 2.09 1.21zm6.88-3.98c0 1.33-.94 2.96-2.09 3.62-1.16.67-2.09.13-2.09-1.21s.94-2.96 2.09-3.62c1.16-.67 2.09-.13 2.09 1.21zm55.88-29.84-52.71 30.43v-4.83l52.71-30.43v4.83zm-69.65 49.13c0 1.33-.94 2.96-2.09 3.62-1.16.67-2.09.13-2.09-1.21s.94-2.96 2.09-3.62c1.16-.67 2.09-.13 2.09 1.21zm6.89-3.97c0 1.33-.94 2.96-2.09 3.62-1.16.67-2.09.13-2.09-1.21s.94-2.96 2.09-3.62c1.16-.67 2.09-.13 2.09 1.21zm6.88-3.98c0 1.33-.94 2.96-2.09 3.62-1.16.67-2.09.13-2.09-1.21s.94-2.96 2.09-3.62c1.16-.67 2.09-.13 2.09 1.21zm55.88-29.84-52.71 30.43v-4.83l52.71-30.43v4.83zm-69.65 49.13c0 1.33-.94 2.96-2.09 3.62-1.16.67-2.09.13-2.09-1.21s.94-2.96 2.09-3.62c1.16-.67 2.09-.13 2.09 1.21zm6.89-3.97c0 1.33-.94 2.96-2.09 3.62-1.16.67-2.09.13-2.09-1.21s.94-2.96 2.09-3.62 2.09-.13 2.09 1.21zm6.88-3.98c0 1.33-.94 2.96-2.09 3.62-1.16.67-2.09.13-2.09-1.21s.94-2.96 2.09-3.62c1.16-.67 2.09-.13 2.09 1.21zm55.88-29.84-52.71 30.43v-4.83l52.71-30.43v4.83zm-69.65 49.13c0 1.33-.94 2.96-2.09 3.62-1.16.67-2.09.13-2.09-1.21s.94-2.96 2.09-3.62c1.16-.67 2.09-.13 2.09 1.21zm6.89-3.97c0 1.33-.94 2.96-2.09 3.62-1.16.67-2.09.13-2.09-1.21s.94-2.96 2.09-3.62c1.16-.67 2.09-.13 2.09 1.21zm6.88-3.98c0 1.33-.94 2.96-2.09 3.62-1.16.67-2.09.13-2.09-1.21s.94-2.96 2.09-3.62c1.16-.67 2.09-.13 2.09 1.21zm55.88-29.84-52.71 30.43v-4.83l52.71-30.44v4.84z" class="cls-80"/><path d="m531.79 406.95-30.95 17.87v-129.3l30.95-17.87v129.3z" class="cls-42"/><path fill="url(#_ÂÁ_Ï_ÌÌ_È_ËÂÌÚ_21)" stroke-width="0" d="M497.66 19.81v223.63c0 .47.31.93.92 1.29 1.23.71 3.22.71 4.45 0 .62-.35.92-.82.92-1.29V19.81h-6.3z" style="mix-blend-mode:lighten"/><path d="M721.52 169.61c0 1.33-.94 2.96-2.09 3.62-1.16.67-2.09.13-2.09-1.21s.94-2.96 2.09-3.62c1.16-.67 2.09-.13 2.09 1.21zm6.89-3.97c0 1.33-.94 2.96-2.09 3.62-1.16.67-2.09.13-2.09-1.21s.94-2.96 2.09-3.62c1.16-.67 2.09-.13 2.09 1.21zm6.88-3.98c0 1.33-.94 2.96-2.09 3.62-1.16.67-2.09.13-2.09-1.21s.94-2.96 2.09-3.62c1.16-.67 2.09-.13 2.09 1.21zm55.88-29.84-52.71 30.43v-4.83l52.71-30.43v4.83zm-69.65 49.13c0 1.33-.94 2.96-2.09 3.62-1.16.67-2.09.13-2.09-1.21s.94-2.96 2.09-3.62c1.16-.67 2.09-.13 2.09 1.21zm6.89-3.97c0 1.33-.94 2.96-2.09 3.62-1.16.67-2.09.13-2.09-1.21s.94-2.96 2.09-3.62c1.16-.67 2.09-.13 2.09 1.21zm6.88-3.98c0 1.33-.94 2.96-2.09 3.62-1.16.67-2.09.13-2.09-1.21s.94-2.96 2.09-3.62c1.16-.67 2.09-.13 2.09 1.21zm55.88-29.84-52.71 30.43v-4.83l52.71-30.43v4.83zm-69.65 49.13c0 1.33-.94 2.96-2.09 3.62-1.16.67-2.09.13-2.09-1.21s.94-2.96 2.09-3.62c1.16-.67 2.09-.13 2.09 1.21zm6.89-3.97c0 1.33-.94 2.96-2.09 3.62-1.16.67-2.09.13-2.09-1.21s.94-2.96 2.09-3.62c1.16-.67 2.09-.13 2.09 1.21zm6.88-3.98c0 1.33-.94 2.96-2.09 3.62-1.16.67-2.09.13-2.09-1.21s.94-2.96 2.09-3.62c1.16-.67 2.09-.13 2.09 1.21zm55.88-29.84-52.71 30.43v-4.83l52.71-30.44v4.84zm-69.65 49.13c0 1.33-.94 2.96-2.09 3.62-1.16.67-2.09.13-2.09-1.21s.94-2.96 2.09-3.62c1.16-.67 2.09-.13 2.09 1.21zm6.89-3.97c0 1.33-.94 2.96-2.09 3.62-1.16.67-2.09.13-2.09-1.21s.94-2.96 2.09-3.62c1.16-.67 2.09-.13 2.09 1.21zm6.88-3.98c0 1.33-.94 2.96-2.09 3.62-1.16.67-2.09.13-2.09-1.21s.94-2.96 2.09-3.62c1.16-.67 2.09-.13 2.09 1.21zm55.88-29.84-52.71 30.43v-4.83L791.17 161v4.84zm-69.65 49.13c0 1.33-.94 2.96-2.09 3.62-1.16.67-2.09.13-2.09-1.21s.94-2.96 2.09-3.62c1.16-.67 2.09-.13 2.09 1.21zm6.89-3.97c0 1.33-.94 2.96-2.09 3.62-1.16.67-2.09.13-2.09-1.21s.94-2.96 2.09-3.62c1.16-.67 2.09-.13 2.09 1.21zm6.88-3.98c0 1.33-.94 2.96-2.09 3.62-1.16.67-2.09.13-2.09-1.21s.94-2.96 2.09-3.62c1.16-.67 2.09-.13 2.09 1.21zm55.88-29.84-52.71 30.43v-4.84l52.71-30.43v4.84zm-69.65 49.13c0 1.33-.94 2.96-2.09 3.62-1.16.67-2.09.13-2.09-1.21s.94-2.96 2.09-3.62c1.16-.67 2.09-.13 2.09 1.21zm6.89-3.97c0 1.33-.94 2.96-2.09 3.62-1.16.67-2.09.13-2.09-1.21s.94-2.96 2.09-3.62c1.16-.67 2.09-.13 2.09 1.21zm6.88-3.98c0 1.33-.94 2.96-2.09 3.62-1.16.67-2.09.13-2.09-1.21s.94-2.96 2.09-3.62c1.16-.67 2.09-.13 2.09 1.21zm55.88-29.84-52.71 30.43v-4.84l52.71-30.43v4.84zm-69.65 49.13c0 1.33-.94 2.96-2.09 3.62-1.16.67-2.09.13-2.09-1.21s.94-2.96 2.09-3.62c1.16-.67 2.09-.13 2.09 1.21zm6.89-3.97c0 1.33-.94 2.96-2.09 3.62-1.16.67-2.09.13-2.09-1.21s.94-2.96 2.09-3.62c1.16-.67 2.09-.13 2.09 1.21zm6.88-3.98c0 1.33-.94 2.96-2.09 3.62-1.16.67-2.09.13-2.09-1.21s.94-2.96 2.09-3.62c1.16-.67 2.09-.13 2.09 1.21zm55.88-29.85-52.71 30.44v-4.84l52.71-30.43v4.83zm-69.65 49.14c0 1.33-.94 2.96-2.09 3.62-1.16.67-2.09.13-2.09-1.21s.94-2.96 2.09-3.62c1.16-.67 2.09-.13 2.09 1.21zm6.89-3.97c0 1.33-.94 2.96-2.09 3.62-1.16.67-2.09.13-2.09-1.21s.94-2.96 2.09-3.62c1.16-.67 2.09-.13 2.09 1.21zm6.88-3.98c0 1.33-.94 2.96-2.09 3.62-1.16.67-2.09.13-2.09-1.21s.94-2.96 2.09-3.62c1.16-.67 2.09-.13 2.09 1.21zm55.88-29.85-52.71 30.44v-4.84l52.71-30.43v4.83zm-69.65 49.14c0 1.33-.94 2.96-2.09 3.62-1.16.67-2.09.13-2.09-1.21s.94-2.96 2.09-3.62c1.16-.67 2.09-.13 2.09 1.21zm6.89-3.98c0 1.33-.94 2.96-2.09 3.62-1.16.67-2.09.13-2.09-1.21s.94-2.96 2.09-3.62c1.16-.67 2.09-.13 2.09 1.21zm6.88-3.97c0 1.33-.94 2.96-2.09 3.62-1.16.67-2.09.13-2.09-1.21s.94-2.96 2.09-3.62c1.16-.67 2.09-.13 2.09 1.21zm55.88-29.85-52.71 30.43v-4.83l52.71-30.43v4.83zm-69.65 49.14c0 1.33-.94 2.96-2.09 3.62-1.16.67-2.09.13-2.09-1.21s.94-2.96 2.09-3.62c1.16-.67 2.09-.13 2.09 1.21zm6.89-3.98c0 1.33-.94 2.96-2.09 3.62-1.16.67-2.09.13-2.09-1.21s.94-2.96 2.09-3.62c1.16-.67 2.09-.13 2.09 1.21zm6.88-3.97c0 1.33-.94 2.96-2.09 3.62-1.16.67-2.09.13-2.09-1.21s.94-2.96 2.09-3.62c1.16-.67 2.09-.13 2.09 1.21zm55.88-29.85-52.71 30.43v-4.83l52.71-30.43v4.83zm-69.65 49.14c0 1.33-.94 2.96-2.09 3.62-1.16.67-2.09.13-2.09-1.21s.94-2.96 2.09-3.62c1.16-.67 2.09-.13 2.09 1.21zm6.89-3.98c0 1.33-.94 2.96-2.09 3.62-1.16.67-2.09.13-2.09-1.21s.94-2.96 2.09-3.62c1.16-.67 2.09-.13 2.09 1.21zm6.88-3.97c0 1.33-.94 2.96-2.09 3.62-1.16.67-2.09.13-2.09-1.21s.94-2.96 2.09-3.62c1.16-.67 2.09-.13 2.09 1.21zm55.88-29.85-52.71 30.43v-4.83l52.71-30.43v4.83zm-69.65 49.14c0 1.33-.94 2.96-2.09 3.62-1.16.67-2.09.13-2.09-1.21s.94-2.96 2.09-3.62c1.16-.67 2.09-.13 2.09 1.21zm6.89-3.98c0 1.33-.94 2.96-2.09 3.62-1.16.67-2.09.13-2.09-1.21s.94-2.96 2.09-3.62c1.16-.67 2.09-.13 2.09 1.21zm6.88-3.97c0 1.33-.94 2.96-2.09 3.62-1.16.67-2.09.13-2.09-1.21s.94-2.96 2.09-3.62c1.16-.67 2.09-.13 2.09 1.21zm55.88-29.85-52.71 30.43v-4.83l52.71-30.43v4.83z" class="cls-80"/><path d="m827.08 236.02-30.95 17.86V124.59l30.95-17.87v129.3z" class="cls-42"/><path d="m124.99 543.8-63.57-36.7 86.18-49.76 63.58 36.71-86.19 49.75z" class="cls-43"/><path d="m159.85 476.22-14.48-8.36 2.8-1.62 14.49 8.36-2.81 1.62zm11.14 6.43-6.7-3.86 2.81-1.62 6.7 3.86-2.81 1.62zm21.96 12.68-17.52-10.11 2.8-1.62 17.53 10.11-2.81 1.62zm-39.33-15.51-14.48-8.36 2.8-1.62 14.49 8.36-2.81 1.62zm11.14 6.43-6.7-3.87 2.81-1.62 6.7 3.87-2.81 1.62zm21.96 12.68-17.52-10.12 2.8-1.62 17.53 10.12-2.81 1.62zm-39.33-15.51-14.48-8.37 2.8-1.61 14.49 8.36-2.81 1.62zm11.14 6.43-6.7-3.87 2.81-1.62 6.69 3.87-2.8 1.62zm21.96 12.68-17.52-10.12 2.8-1.62 17.53 10.12-2.81 1.62zm-39.33-15.52-14.48-8.36 2.8-1.62 14.49 8.37-2.81 1.61zm11.14 6.43-6.7-3.86 2.81-1.62 6.69 3.87-2.8 1.61zm21.96 12.68-17.52-10.11 2.8-1.62 17.53 10.12-2.81 1.61zm-39.33-15.51-14.48-8.36 2.8-1.62 14.49 8.36-2.81 1.62zm11.14 6.43-6.7-3.87 2.81-1.61 6.69 3.86-2.8 1.62zm21.96 12.68-17.52-10.12 2.8-1.61 17.53 10.11-2.81 1.62zm-39.33-15.51-14.48-8.36 2.8-1.62 14.49 8.36-2.81 1.62zm11.14 6.43-6.7-3.87 2.81-1.62 6.69 3.87-2.8 1.62zm21.96 12.68-17.52-10.12 2.8-1.62 17.53 10.12-2.81 1.62zm-39.33-15.51-14.48-8.37 2.8-1.62 14.49 8.37-2.81 1.62zm11.14 6.43-6.7-3.87 2.81-1.62 6.69 3.87-2.8 1.62zm21.96 12.68-17.52-10.12 2.8-1.62 17.53 10.12-2.81 1.62zm-39.33-15.52-14.48-8.36 2.8-1.62 14.49 8.36-2.81 1.62zm11.14 6.43-6.7-3.86 2.81-1.62 6.69 3.86-2.8 1.62zm21.96 12.68-17.52-10.11 2.8-1.62 17.53 10.11-2.81 1.62zM110.01 505l-14.48-8.36 2.8-1.62 14.49 8.36-2.81 1.62zm11.14 6.43-6.7-3.87 2.81-1.62 6.69 3.87-2.8 1.62zm21.96 12.68-17.52-10.12 2.8-1.62 17.53 10.12-2.81 1.62zm-39.33-15.51-14.48-8.37 2.8-1.62 14.49 8.37-2.81 1.62zm11.14 6.43-6.7-3.87 2.81-1.62 6.69 3.87-2.8 1.62zm21.96 12.68-17.52-10.12 2.8-1.62 17.53 10.12-2.81 1.62zm-39.33-15.52-14.48-8.36 2.8-1.62 14.49 8.36-2.81 1.62zm11.14 6.43-6.7-3.86 2.81-1.62 6.69 3.86-2.8 1.62zm21.96 12.68-17.52-10.11 2.8-1.62 17.53 10.11-2.81 1.62zm-39.33-15.51-14.48-8.36 2.8-1.62 14.49 8.36-2.81 1.62zm11.14 6.43-6.7-3.87 2.81-1.62 6.69 3.87-2.8 1.62zm21.96 12.68-17.52-10.12 2.8-1.62 17.53 10.12-2.81 1.62z" class="cls-80"/><path d="m212.79 594.49-63.58-36.71 86.18-49.75 63.58 36.7-86.18 49.76z" class="cls-43"/><path d="m247.65 526.91-14.49-8.36 2.81-1.62 14.48 8.36-2.8 1.62zm11.14 6.43-6.7-3.87 2.8-1.61 6.7 3.86-2.8 1.62zm21.96 12.68-17.53-10.12 2.81-1.61 17.52 10.11-2.8 1.62zm-39.33-15.51-14.49-8.37 2.81-1.61 14.48 8.36-2.8 1.62zm11.14 6.43-6.7-3.87 2.8-1.62 6.7 3.87-2.8 1.62zm21.96 12.68-17.53-10.12 2.81-1.62L277.32 548l-2.8 1.62zm-39.33-15.51-14.49-8.37 2.81-1.62 14.48 8.37-2.8 1.62zm11.14 6.43-6.7-3.87 2.8-1.62 6.7 3.87-2.8 1.62zm21.96 12.67-17.53-10.11 2.81-1.62 17.52 10.12-2.8 1.61zm-39.33-15.51-14.49-8.36 2.81-1.62 14.48 8.36-2.8 1.62zm11.14 6.43-6.7-3.86 2.8-1.62 6.7 3.86-2.8 1.62zm21.96 12.68-17.53-10.12 2.81-1.61 17.52 10.11-2.8 1.62zm-39.33-15.51-14.49-8.36 2.81-1.62 14.48 8.36-2.8 1.62zm11.13 6.43-6.69-3.87 2.8-1.62 6.7 3.87-2.81 1.62zm21.97 12.68-17.53-10.12 2.81-1.62 17.52 10.12-2.8 1.62zM216.5 544.9l-14.49-8.37 2.81-1.62 14.48 8.37-2.8 1.62zm11.13 6.43-6.69-3.87 2.8-1.62 6.7 3.87-2.81 1.62zm21.97 12.68-17.53-10.12 2.81-1.62 17.52 10.12-2.8 1.62zm-39.33-15.52-14.49-8.36 2.81-1.62 14.48 8.36-2.8 1.62zm11.13 6.43-6.69-3.86 2.8-1.62 6.7 3.86-2.81 1.62zm21.97 12.68-17.53-10.11 2.81-1.62 17.52 10.11-2.8 1.62zm-39.33-15.51-14.49-8.36 2.81-1.62 14.48 8.36-2.8 1.62zm11.13 6.43-6.69-3.87 2.8-1.62 6.7 3.87-2.81 1.62zm21.97 12.68-17.53-10.12 2.81-1.62 17.52 10.12-2.8 1.62zm-39.33-15.51-14.49-8.37 2.81-1.61 14.48 8.36-2.8 1.62zm11.13 6.43-6.69-3.87 2.8-1.62 6.7 3.87-2.81 1.62zm21.97 12.68-17.53-10.12 2.81-1.62 17.52 10.12-2.8 1.62zm-39.33-15.52-14.49-8.36 2.81-1.62 14.48 8.37-2.8 1.61zm11.13 6.43-6.69-3.86 2.8-1.62 6.7 3.87-2.81 1.61zm21.97 12.68-17.53-10.11 2.81-1.62 17.52 10.12-2.8 1.61zm-39.33-15.51-14.49-8.36 2.8-1.62 14.49 8.36-2.8 1.62zm11.13 6.43-6.69-3.87 2.8-1.61 6.7 3.86-2.81 1.62zm21.97 12.68-17.53-10.12 2.81-1.61 17.52 10.11-2.8 1.62zm-39.33-15.51-14.49-8.36 2.8-1.62 14.49 8.36-2.8 1.62zm11.13 6.43-6.69-3.87 2.8-1.62 6.7 3.87-2.81 1.62zm21.97 12.68-17.53-10.12 2.81-1.62 17.52 10.12-2.8 1.62z" class="cls-80"/><path d="M300.58 645.18 237 608.47l86.19-49.76 63.58 36.71-86.19 49.76z" class="cls-43"/><path d="m335.44 577.6-14.48-8.36 2.8-1.62 14.49 8.36-2.81 1.62zm11.14 6.43-6.7-3.87 2.81-1.62 6.69 3.87-2.8 1.62zm21.96 12.68-17.52-10.12 2.8-1.62 17.53 10.12-2.81 1.62zm-39.33-15.51-14.48-8.37 2.8-1.62 14.49 8.37-2.81 1.62zm11.14 6.43-6.7-3.87 2.8-1.62 6.7 3.87-2.8 1.62zm21.96 12.68-17.52-10.12 2.8-1.62 17.52 10.12-2.8 1.62zm-39.33-15.52-14.48-8.36 2.8-1.62 14.49 8.36-2.81 1.62zm11.14 6.43-6.7-3.86 2.8-1.62 6.7 3.86-2.8 1.62zm21.96 12.68-17.52-10.11 2.8-1.62 17.52 10.11-2.8 1.62zm-39.33-15.51-14.48-8.36 2.8-1.62 14.49 8.36-2.81 1.62zm11.14 6.43-6.7-3.87 2.8-1.62 6.7 3.87-2.8 1.62zm21.96 12.68-17.52-10.12 2.8-1.62 17.52 10.12-2.8 1.62zm-39.33-15.51-14.48-8.37 2.8-1.61 14.49 8.36-2.81 1.62zm11.14 6.43-6.7-3.87 2.8-1.62 6.7 3.87-2.8 1.62zm21.96 12.68-17.52-10.12 2.8-1.62 17.52 10.12-2.8 1.62zm-39.33-15.52-14.48-8.36 2.8-1.62 14.49 8.37-2.81 1.61zm11.14 6.43-6.7-3.86 2.8-1.62 6.7 3.87-2.8 1.61zm21.96 12.68-17.52-10.11 2.8-1.62 17.52 10.12-2.8 1.61zm-39.33-15.51-14.48-8.36 2.8-1.62 14.48 8.36-2.8 1.62zm11.14 6.43-6.7-3.87 2.8-1.61 6.7 3.86-2.8 1.62zm21.96 12.68-17.52-10.12 2.8-1.61 17.52 10.11-2.8 1.62zm-39.33-15.51-14.48-8.37 2.8-1.61 14.48 8.36-2.8 1.62zm11.14 6.43-6.7-3.87 2.8-1.62 6.7 3.87-2.8 1.62zm21.96 12.68-17.52-10.12 2.8-1.62 17.52 10.12-2.8 1.62zm-39.33-15.52-14.48-8.36 2.8-1.62 14.48 8.37-2.8 1.61zm11.14 6.43-6.7-3.86 2.8-1.62 6.7 3.87-2.8 1.61zm21.96 12.68-17.52-10.11 2.8-1.62 17.52 10.12-2.8 1.61zm-39.33-15.51-14.48-8.36 2.8-1.62 14.48 8.36-2.8 1.62zm11.14 6.43-6.7-3.87 2.8-1.61 6.7 3.86-2.8 1.62zm21.96 12.68-17.52-10.12 2.8-1.61 17.52 10.11-2.8 1.62zm-39.33-15.51-14.49-8.36 2.81-1.62 14.48 8.36-2.8 1.62zm11.14 6.43-6.7-3.87 2.8-1.62 6.7 3.87-2.8 1.62zm21.96 12.68-17.52-10.12 2.8-1.62 17.52 10.12-2.8 1.62zm-39.33-15.51-14.49-8.37 2.81-1.62 14.48 8.37-2.8 1.62zm11.14 6.43-6.7-3.87 2.8-1.62 6.7 3.87-2.8 1.62zm21.96 12.68-17.52-10.12 2.8-1.62 17.52 10.12-2.8 1.62z" class="cls-80"/><path d="m267.64 527.17-.91-1.58 71.03-41 .9 1.57-71.02 41.01z" class="cls-43"/><path d="m355.43 577.85-.91-1.57L393.11 554 217.82 452.79l-39.5 22.81-.9-1.57 40.4-23.33.46.26L396.75 554l-41.32 23.85z" class="cls-43"/><path d="M439.33 648.13a.96.96 0 0 1-.51-.14l-37.52-21.67c-.49-.28-.66-.91-.37-1.4.28-.49.91-.66 1.4-.37l37.52 21.67c.49.28.66.91.37 1.4-.19.33-.53.51-.89.51zm160.28-93.07a.96.96 0 0 1-.51-.14l-37.52-21.67c-.49-.28-.66-.91-.37-1.4.28-.49.9-.66 1.4-.37l37.52 21.67c.49.28.66.91.37 1.4-.19.33-.53.51-.89.51zm157.88-91.2a.96.96 0 0 1-.51-.14l-37.52-21.67c-.49-.28-.66-.91-.37-1.4.28-.49.9-.66 1.4-.37l37.52 21.66c.49.28.66.91.37 1.4-.19.33-.53.51-.89.51z" class="cls-80"/><path d="M639.14 707.15c-3.74 0-7.32-.77-10.05-2.35s-71.97-41.56-71.97-41.56c-2.87-1.65-4.45-4.02-4.45-6.66 0-3.07 2.18-6.09 5.98-8.28l68.9-39.78c6.84-3.95 16.87-4.34 22.85-.89l71.97 41.55c2.87 1.65 4.45 4.02 4.45 6.66 0 3.07-2.18 6.09-5.98 8.28l-68.9 39.78c-3.71 2.14-8.37 3.24-12.8 3.24zm-8.53-4.97c5.04 2.91 13.94 2.51 19.82-.89l68.9-39.78c2.84-1.64 4.47-3.7 4.47-5.66s-1.6-3.26-2.93-4.04l-71.97-41.55c-5.04-2.91-13.94-2.51-19.82.89l-68.9 39.78c-2.84 1.64-4.47 3.7-4.47 5.66s1.6 3.26 2.93 4.04l71.97 41.55z" class="cls-79"/><path d="M745.91 599.32v-16.67h-43.02l-50.86-29.36c-6.79-3.92-18.64-3.43-26.48 1.1l-48.96 28.26h-43.05v17.62h.03c-.19 2.65 1.29 5.21 4.55 7.09l89.33 51.57c6.79 3.92 18.64 3.43 26.48-1.1l85.52-49.37c4.52-2.61 6.7-5.99 6.45-9.14z" class="cls-77"/><path fill="url(#_ÂÁ_Ï_ÌÌ_È_ËÂÌÚ_19)" stroke-width="0" d="M745.91 599.32v-16.67h-43.02l-50.86-29.36c-6.79-3.92-18.64-3.43-26.48 1.1l-48.96 28.26h-43.05v17.62h.03c-.19 2.65 1.29 5.21 4.55 7.09l89.33 51.57c6.79 3.92 18.64 3.43 26.48-1.1l85.52-49.37c4.52-2.61 6.7-5.99 6.45-9.14z" opacity=".5"/><path fill="url(#_ÂÁ_Ï_ÌÌ_È_ËÂÌÚ_20-10)" stroke-width="0" d="M652.04 553.28c-3.26-1.88-7.7-2.74-12.3-2.63v110.9c4.97-.12 10.13-1.37 14.2-3.72l85.52-49.37c4.52-2.61 6.7-5.99 6.45-9.14v-16.67h-43.02l-50.86-29.36z"/><path d="m627.46 641.31-89.33-51.57c-6.79-3.92-5.94-10.76 1.9-15.29l85.52-49.37c7.84-4.52 19.69-5.02 26.48-1.1l89.33 51.57c6.79 3.92 5.94 10.76-1.9 15.29l-85.52 49.37c-7.84 4.52-19.69 5.02-26.48 1.1z" class="cls-77"/><path fill="url(#_ÂÁ_Ï_ÌÌ_È_ËÂÌÚ_19-2)" stroke-width="0" d="m627.46 641.31-89.33-51.57c-6.79-3.92-5.94-10.76 1.9-15.29l85.52-49.37c7.84-4.52 19.69-5.02 26.48-1.1l89.33 51.57c6.79 3.92 5.94 10.76-1.9 15.29l-85.52 49.37c-7.84 4.52-19.69 5.02-26.48 1.1z" opacity=".5"/><path d="m629.85 629.91-71.97-41.55c-5.47-3.16-4.78-8.67 1.53-12.32l68.9-39.78c6.31-3.65 15.87-4.04 21.34-.88l71.97 41.55c5.47 3.16 4.78 8.67-1.53 12.32l-68.9 39.78c-6.31 3.65-15.87 4.04-21.34.88z" class="cls-76"/><path d="m559.41 581.43 68.9-39.78c6.31-3.65 15.87-4.04 21.34-.88l71.97 41.55c1.35.78 2.32 1.7 2.93 2.71 1.59-2.92.67-6.02-2.93-8.1l-71.97-41.55c-5.47-3.16-15.02-2.76-21.34.88l-68.9 39.78c-4.76 2.75-6.32 6.55-4.46 9.61.82-1.51 2.31-2.98 4.46-4.22z" class="cls-73"/><path fill="url(#_ÂÁ_Ï_ÌÌ_È_ËÂÌÚ_19-3)" stroke-width="0" d="m630.46 641.31-89.33-51.57c-6.79-3.92-8.41-9.67 1.9-15.29l85.52-49.37c3.85-2.23 8.68-3.47 13.4-3.7-5.61-.25-11.72 1-16.4 3.7l-85.52 49.37c-7.84 4.52-8.69 11.37-1.9 15.29l89.33 51.57c3.45 1.99 8.21 2.84 13.08 2.6-3.79-.17-7.35-1.02-10.08-2.6z" opacity=".5"/><path fill="url(#_ÂÁ_Ï_ÌÌ_È_ËÂÌÚ_19-4)" stroke-width="0" d="m739.46 598.28-85.52 49.38c-7.84 4.52-19.69 5.02-26.48 1.1l-89.33-51.57c-3.26-1.88-4.74-4.44-4.55-7.09h-.03v3.65h.03c-.19 2.65 1.29 5.21 4.55 7.09l89.33 51.57c6.79 3.92 18.64 3.43 26.48-1.1l85.52-49.38c4.52-2.61 6.7-5.99 6.45-9.14v-3.65c.25 3.15-1.93 6.53-6.45 9.14z" opacity=".5"/><path d="M799.98 614.3c-3.74 0-7.32-.78-10.05-2.35l-71.97-41.55c-2.87-1.66-4.45-4.02-4.45-6.66 0-3.07 2.18-6.08 5.98-8.28l68.9-39.78c6.84-3.95 16.87-4.33 22.85-.88l71.97 41.55c2.87 1.65 4.45 4.02 4.45 6.66 0 3.07-2.18 6.09-5.98 8.28l-68.9 39.78c-3.71 2.14-8.37 3.24-12.8 3.24zm-8.53-4.98c5.04 2.9 13.93 2.51 19.82-.89l68.9-39.78c2.84-1.64 4.47-3.7 4.47-5.66s-1.6-3.27-2.93-4.04l-71.97-41.55c-5.04-2.91-13.94-2.51-19.82.88l-68.9 39.78c-2.84 1.64-4.47 3.7-4.47 5.65s1.6 3.27 2.93 4.04l71.97 41.55z" class="cls-79"/><path d="M906.75 506.47V489.8h-43.02l-50.86-29.36c-6.79-3.92-18.64-3.43-26.48 1.1l-48.96 28.26h-43.05v17.62h.03c-.19 2.65 1.29 5.21 4.55 7.09l89.33 51.57c6.79 3.92 18.64 3.43 26.48-1.1l85.52-49.37c4.52-2.61 6.7-5.99 6.45-9.14z" class="cls-77"/><path fill="url(#_ÂÁ_Ï_ÌÌ_È_ËÂÌÚ_19-5)" stroke-width="0" d="M906.75 506.47V489.8h-43.02l-50.86-29.36c-6.79-3.92-18.64-3.43-26.48 1.1l-48.96 28.26h-43.05v17.62h.03c-.19 2.65 1.29 5.21 4.55 7.09l89.33 51.57c6.79 3.92 18.64 3.43 26.48-1.1l85.52-49.37c4.52-2.61 6.7-5.99 6.45-9.14z" opacity=".5"/><path fill="url(#_ÂÁ_Ï_ÌÌ_È_ËÂÌÚ_20-11)" stroke-width="0" d="M812.88 460.43c-3.26-1.88-7.7-2.74-12.3-2.63v110.9c4.97-.12 10.13-1.37 14.2-3.72l85.52-49.37c4.52-2.61 6.7-5.99 6.45-9.14V489.8h-43.02l-50.86-29.36z"/><path d="m788.3 548.46-89.33-51.57c-6.79-3.92-5.94-10.76 1.9-15.29l85.52-49.37c7.84-4.52 19.69-5.02 26.48-1.1l89.33 51.57c6.79 3.92 5.94 10.76-1.9 15.29l-85.52 49.37c-7.84 4.52-19.69 5.02-26.48 1.1z" class="cls-77"/><path fill="url(#_ÂÁ_Ï_ÌÌ_È_ËÂÌÚ_19-6)" stroke-width="0" d="m788.3 548.46-89.33-51.57c-6.79-3.92-5.94-10.76 1.9-15.29l85.52-49.37c7.84-4.52 19.69-5.02 26.48-1.1l89.33 51.57c6.79 3.92 5.94 10.76-1.9 15.29l-85.52 49.37c-7.84 4.52-19.69 5.02-26.48 1.1z" opacity=".5"/><path d="m790.69 537.06-71.97-41.55c-5.47-3.16-4.78-8.67 1.53-12.32l68.9-39.78c6.31-3.65 15.87-4.04 21.34-.88l71.97 41.55c5.47 3.16 4.78 8.67-1.53 12.32l-68.9 39.78c-6.31 3.65-15.87 4.04-21.34.88z" class="cls-76"/><path d="m720.25 488.58 68.9-39.78c6.31-3.65 15.87-4.04 21.34-.88l71.97 41.55c1.35.78 2.32 1.7 2.93 2.71 1.59-2.92.67-6.02-2.93-8.1l-71.97-41.55c-5.47-3.16-15.02-2.76-21.34.88l-68.9 39.78c-4.76 2.75-6.32 6.55-4.46 9.61.82-1.51 2.31-2.98 4.46-4.22z" class="cls-73"/><path fill="url(#_ÂÁ_Ï_ÌÌ_È_ËÂÌÚ_19-7)" stroke-width="0" d="m791.3 548.46-89.33-51.57c-6.79-3.92-8.41-9.67 1.9-15.29l85.52-49.37c3.85-2.23 8.68-3.47 13.4-3.7-5.61-.25-11.72 1-16.4 3.7l-85.52 49.37c-7.84 4.52-8.69 11.37-1.9 15.29l89.33 51.57c3.45 1.99 8.21 2.84 13.08 2.6-3.79-.17-7.35-1.02-10.08-2.6z" opacity=".5"/><path fill="url(#_ÂÁ_Ï_ÌÌ_È_ËÂÌÚ_19-8)" stroke-width="0" d="m900.3 505.43-85.52 49.38c-7.84 4.52-19.69 5.02-26.48 1.1l-89.33-51.57c-3.26-1.88-4.74-4.44-4.55-7.09h-.03v3.65h.03c-.19 2.65 1.29 5.21 4.55 7.09l89.33 51.57c6.79 3.92 18.64 3.43 26.48-1.1l85.52-49.38c4.52-2.61 6.7-5.99 6.45-9.14v-3.65c.25 3.15-1.93 6.53-6.45 9.14z" opacity=".5"/><path d="M478.3 800c-3.74 0-7.32-.78-10.05-2.35l-71.97-41.55c-2.87-1.66-4.45-4.02-4.45-6.66 0-3.07 2.18-6.08 5.98-8.28l68.9-39.78c6.84-3.96 16.88-4.34 22.85-.89l71.97 41.55c2.87 1.66 4.45 4.02 4.45 6.66 0 3.07-2.18 6.08-5.98 8.28l-68.9 39.78c-3.71 2.15-8.37 3.24-12.8 3.24zm1.25-98.84c-3.92 0-8.07.96-11.32 2.83l-68.9 39.78c-2.84 1.64-4.47 3.7-4.47 5.65s1.6 3.27 2.93 4.04l71.97 41.55c5.04 2.9 13.94 2.51 19.82-.89l68.9-39.78c2.84-1.64 4.47-3.7 4.47-5.65s-1.6-3.27-2.93-4.04l-71.97-41.55c-2.26-1.31-5.31-1.95-8.51-1.95z" class="cls-79"/><path d="M585.07 692.16v-16.67h-43.02l-50.86-29.36c-6.79-3.92-18.64-3.43-26.48 1.1l-48.96 28.26H372.7v17.62h.03c-.19 2.65 1.29 5.21 4.55 7.09l89.33 51.57c6.79 3.92 18.64 3.43 26.48-1.1l85.52-49.37c4.52-2.61 6.7-5.99 6.45-9.14z" class="cls-77"/><path fill="url(#_ÂÁ_Ï_ÌÌ_È_ËÂÌÚ_19-9)" stroke-width="0" d="M585.07 692.16v-16.67h-43.02l-50.86-29.36c-6.79-3.92-18.64-3.43-26.48 1.1l-48.96 28.26H372.7v17.62h.03c-.19 2.65 1.29 5.21 4.55 7.09l89.33 51.57c6.79 3.92 18.64 3.43 26.48-1.1l85.52-49.37c4.52-2.61 6.7-5.99 6.45-9.14z" opacity=".5"/><path fill="url(#_ÂÁ_Ï_ÌÌ_È_ËÂÌÚ_20-12)" stroke-width="0" d="M491.2 646.13c-3.26-1.88-7.7-2.74-12.3-2.63v110.9c4.97-.12 10.13-1.37 14.2-3.72l85.52-49.37c4.52-2.61 6.7-5.99 6.45-9.14V675.5h-43.02l-50.86-29.36z"/><path d="m466.62 734.16-89.33-51.57c-6.79-3.92-5.94-10.76 1.9-15.29l85.52-49.37c7.84-4.52 19.69-5.02 26.48-1.1l89.33 51.57c6.79 3.92 5.94 10.76-1.9 15.29l-85.52 49.37c-7.84 4.52-19.69 5.02-26.48 1.1z" class="cls-77"/><path fill="url(#_ÂÁ_Ï_ÌÌ_È_ËÂÌÚ_19-10)" stroke-width="0" d="m466.62 734.16-89.33-51.57c-6.79-3.92-5.94-10.76 1.9-15.29l85.52-49.37c7.84-4.52 19.69-5.02 26.48-1.1l89.33 51.57c6.79 3.92 5.94 10.76-1.9 15.29l-85.52 49.37c-7.84 4.52-19.69 5.02-26.48 1.1z" opacity=".5"/><path d="m469.01 722.76-71.97-41.55c-5.47-3.16-4.78-8.67 1.53-12.32l68.9-39.78c6.31-3.65 15.87-4.04 21.34-.88l71.97 41.55c5.47 3.16 4.78 8.67-1.53 12.32l-68.9 39.78c-6.31 3.65-15.87 4.04-21.34.88z" class="cls-76"/><path d="m398.57 674.28 68.9-39.78c6.31-3.65 15.87-4.04 21.34-.88l71.97 41.55c1.35.78 2.32 1.7 2.93 2.71 1.59-2.92.67-6.02-2.93-8.1l-71.97-41.55c-5.47-3.16-15.02-2.76-21.34.88l-68.9 39.78c-4.76 2.75-6.32 6.55-4.46 9.61.82-1.51 2.31-2.98 4.46-4.22z" class="cls-73"/><path fill="url(#_ÂÁ_Ï_ÌÌ_È_ËÂÌÚ_19-11)" stroke-width="0" d="m469.62 734.16-89.33-51.57c-6.79-3.92-8.41-9.67 1.9-15.29l85.52-49.37c3.85-2.23 8.68-3.47 13.4-3.7-5.61-.25-11.72 1-16.4 3.7l-85.52 49.37c-7.84 4.52-8.69 11.37-1.9 15.29l89.33 51.57c3.45 1.99 8.21 2.84 13.08 2.6-3.79-.17-7.35-1.02-10.08-2.6z" opacity=".5"/><path fill="url(#_ÂÁ_Ï_ÌÌ_È_ËÂÌÚ_19-12)" stroke-width="0" d="m578.62 691.13-85.52 49.38c-7.84 4.52-19.69 5.02-26.48 1.1l-89.33-51.57c-3.26-1.88-4.74-4.44-4.55-7.09h-.03v3.65h.03c-.19 2.65 1.29 5.21 4.55 7.09l89.33 51.57c6.79 3.92 18.64 3.43 26.48-1.1l85.52-49.38c4.52-2.61 6.7-5.99 6.45-9.14v-3.65c.25 3.15-1.93 6.53-6.45 9.14z" opacity=".5"/><path d="M563.11 686.27c.97.56.97 1.48 0 2.04s-2.56.56-3.53 0c-.97-.56-.97-1.48 0-2.04s2.56-.56 3.53 0zm5.5-3.18c.97.56.97 1.48 0 2.04s-2.56.56-3.53 0c-.97-.56-.97-1.48 0-2.04s2.56-.56 3.53 0zm5.5-3.17c.97.56.97 1.48 0 2.04s-2.56.56-3.53 0c-.97-.56-.97-1.48 0-2.04s2.56-.56 3.53 0zm150.69-86.95c.97.56.97 1.48 0 2.04s-2.56.56-3.53 0c-.97-.56-.97-1.48 0-2.04s2.56-.56 3.53 0zm5.5-3.18c.97.56.97 1.48 0 2.04s-2.56.56-3.53 0c-.97-.56-.97-1.48 0-2.04s2.56-.56 3.53 0zm5.5-3.17c.97.56.97 1.48 0 2.04s-2.56.56-3.53 0c-.97-.56-.97-1.48 0-2.04s2.56-.56 3.53 0z" class="cls-79"/><path fill="#d4e058" stroke-width="0" d="M720.31 401.98c2.82 1.63 2.82 4.27 0 5.89-2.82 1.63-7.39 1.63-10.21 0-2.82-1.63-2.82-4.27 0-5.89 2.82-1.63 7.39-1.63 10.21 0z" opacity=".2"/><path fill="#d4e058" stroke-width="0" d="M736.21 392.8c2.82 1.63 2.82 4.27 0 5.89-2.82 1.63-7.39 1.63-10.21 0-2.82-1.63-2.82-4.27 0-5.89 2.82-1.63 7.39-1.63 10.21 0z" opacity=".6"/><path d="M752.11 383.62c2.82 1.63 2.82 4.27 0 5.89-2.82 1.63-7.39 1.63-10.21 0-2.82-1.63-2.82-4.27 0-5.89 2.82-1.63 7.39-1.63 10.21 0zm133.43 116.39c.97.56.97 1.48 0 2.04s-2.56.56-3.53 0c-.97-.56-.97-1.48 0-2.04s2.56-.56 3.53 0zm5.5-3.17c.97.56.97 1.48 0 2.04s-2.56.56-3.53 0c-.97-.56-.97-1.48 0-2.04s2.56-.56 3.53 0zm5.49-3.18c.97.56.97 1.48 0 2.04s-2.56.56-3.53 0c-.97-.56-.97-1.48 0-2.04s2.56-.56 3.53 0z" class="cls-79"/></g></g></svg>